<?xml version="1.0" encoding="UTF-8" standalone="no"?>
<svg width="122px" height="40px" viewBox="0 0 122 40" version="1.1" xmlns="http://www.w3.org/2000/svg" xmlns:xlink="http://www.w3.org/1999/xlink" xmlns:sketch="http://www.bohemiancoding.com/sketch/ns">
    <!-- Generator: Sketch 3.2.2 (9983) - http://www.bohemiancoding.com/sketch -->
    <title>offerup_logo</title>
    <desc>Created with Sketch.</desc>
    <defs></defs>
    <g id="Page-1" stroke="none" stroke-width="1" fill="none" fill-rule="evenodd" sketch:type="MSPage">
        <g id="offerup_logo" sketch:type="MSLayerGroup" fill="#FFFFFF">
            <path d="M0,12.8293103 C0,8.93944962 1.12547765,5.91103805 3.3764667,3.74398475 C5.62745576,1.57693145 8.761911,0.493421053 12.7799265,0.493421053 C16.8992364,0.493421053 20.0730834,1.55797002 22.3015626,3.68709989 C24.5300417,5.81622976 25.6442646,8.79859213 25.6442646,12.6342765 C25.6442646,15.41894 25.1574955,17.7024381 24.1839428,19.4848395 C23.21039,21.2672408 21.8035429,22.6541341 19.9633594,23.645561 C18.1231758,24.6369879 15.8300151,25.1326939 13.0838085,25.1326939 C10.292582,25.1326939 7.98253917,24.7047073 6.15361056,23.8487212 C4.32468196,22.9927352 2.84186516,21.6383472 1.70511568,19.7855166 C0.568366211,17.932686 0,15.6139738 0,12.8293103 Z M7.64769708,12.8618159 C7.64769708,15.2672451 8.11195661,16.9954442 9.04048959,18.046465 C9.96902258,19.0974859 11.2323712,19.6229884 12.8305735,19.6229884 C14.4737955,19.6229884 15.7455852,19.108321 16.6459808,18.0789707 C17.5463765,17.0496203 17.9965675,15.2022351 17.9965675,12.5367596 C17.9965675,10.2938594 17.5266806,8.65504991 16.5868927,7.62028196 C15.6471047,6.58551401 14.3725013,6.0681378 12.7630441,6.0681378 C11.2211166,6.0681378 9.98309122,6.59364034 9.04893076,7.64466119 C8.1147703,8.69568204 7.64769708,10.4347162 7.64769708,12.8618159 Z" id="Path" sketch:type="MSShapeGroup"></path>
            <path d="M46.2049579,7.36511271 L49.4801306,7.36511271 L49.4801306,12.2084526 L46.2049579,12.2084526 L46.2049579,24.625606 L39.3169659,24.625606 L39.3169659,12.2084526 L36.7508512,12.2084526 L36.7508512,7.36511271 L39.3169659,7.36511271 L39.3169659,6.58497742 C39.3169659,5.8806851 39.3957493,5.10597517 39.5533185,4.26082438 C39.7108878,3.41567359 40.0063257,2.72493571 40.439641,2.18859002 C40.8729564,1.65224433 41.4807144,1.21884017 42.2629331,0.888364542 C43.0451518,0.557888914 44.1903253,0.392653578 45.6984879,0.392653578 C46.9027671,0.392653578 48.6528848,0.528092378 50.9488937,0.79897404 L50.1891886,4.79716739 C49.3675776,4.66714419 48.7035458,4.60213357 48.1970733,4.60213357 C47.5780513,4.60213357 47.1334876,4.70235828 46.8633689,4.90281071 C46.5932503,5.10326314 46.4019191,5.42018993 46.2893696,5.85360059 C46.2330949,6.09197646 46.2049579,6.59580879 46.2049579,7.36511271 L46.2049579,7.36511271 Z" id="Path" sketch:type="MSShapeGroup"></path>
            <path d="M68.7327438,17.636894 L54.9567596,17.636894 C55.080564,18.6987501 55.3788156,19.4897127 55.8515233,20.0098055 C56.5155651,20.7574389 57.3821829,21.13125 58.4514027,21.13125 C59.1266994,21.13125 59.7682216,20.9687234 60.3759887,20.6436654 C60.7474019,20.4377954 61.1469464,20.0748194 61.5746344,19.5547266 L68.3444501,20.1560809 C67.3089951,21.8897235 66.0597149,23.1330517 64.5965721,23.8861027 C63.1334292,24.6391537 61.0344134,25.0156736 58.2994617,25.0156736 C55.9246682,25.0156736 54.0563753,24.6933293 52.6945269,24.0486309 C51.3326786,23.4039325 50.2043872,22.3800152 49.3096191,20.9768482 C48.4148509,19.5736812 47.9674736,17.9240366 47.9674736,16.027865 C47.9674736,13.3298836 48.865042,11.1466102 50.6602057,9.47797912 C52.4553695,7.80934808 54.934234,6.97504507 58.0968737,6.97504507 C60.6630012,6.97504507 62.6888609,7.34885616 64.1745137,8.09648955 C65.6601665,8.84412293 66.7912715,9.92763333 67.5678628,11.3470532 C68.344454,12.7664732 68.7327438,14.6138584 68.7327438,16.8892644 L68.7327438,17.636894 Z M61.7434577,14.4675944 C61.6083984,13.1890329 61.2510592,12.2734667 60.6714295,11.7208681 C60.0917998,11.1682695 59.3292887,10.8919743 58.3838733,10.8919743 C57.2921436,10.8919743 56.4198985,11.3091258 55.7671116,12.1434414 C55.3506787,12.6635341 55.0861914,13.4382441 54.973642,14.4675944 L61.7434577,14.4675944 Z" id="Path" sketch:type="MSShapeGroup"></path>
            <path d="M69.364143,7.36511271 L75.7963121,7.36511271 L75.7963121,10.1931031 C76.4153341,8.96871802 77.0540427,8.12628868 77.712457,7.66578985 C78.3708713,7.20529103 79.1840289,6.97504507 80.1519542,6.97504507 C81.1648992,6.97504507 82.2734947,7.27842798 83.4777739,7.8852029 L81.3505998,12.5985203 C80.5402438,12.2734623 79.8987215,12.1109357 79.4260138,12.1109357 C78.5256182,12.1109357 77.8278221,12.4684941 77.3326045,13.1836217 C76.6235429,14.1913015 76.2690174,16.0766096 76.2690174,18.8396026 L76.2690174,24.625606 L69.364143,24.625606 L69.364143,7.36511271 Z" id="Path" sketch:type="MSShapeGroup"></path>
            <path d="M33.6174901,7.36511271 L36.8926628,7.36511271 L36.8926628,12.2084526 L33.6174901,12.2084526 L33.6174901,24.625606 L26.729498,24.625606 L26.729498,12.2084526 L24.1633833,12.2084526 L24.1633833,7.36511271 L26.729498,7.36511271 L26.729498,6.58497742 C26.729498,5.8806851 26.8082814,5.10597517 26.9658507,4.26082438 C27.1234199,3.41567359 27.4188578,2.72493571 27.8521732,2.18859002 C28.2854886,1.65224433 28.8932465,1.21884017 29.6754652,0.888364542 C30.4576839,0.557888914 31.6028574,0.392653578 33.1110201,0.392653578 C34.3152992,0.392653578 36.065417,0.528092378 38.3614258,0.79897404 L37.6017208,4.79716739 C36.7801098,4.66714419 36.116078,4.60213357 35.6096054,4.60213357 C34.9905834,4.60213357 34.5460198,4.70235828 34.2759011,4.90281071 C34.0057824,5.10326314 33.8144512,5.42018993 33.7019017,5.85360059 C33.645627,6.09197646 33.6174901,6.59580879 33.6174901,7.36511271 L33.6174901,7.36511271 Z" id="Path" sketch:type="MSShapeGroup"></path>
            <path d="M82.642584,1.0293784 L87.6397547,1.0293784 L87.6397547,13.9341163 C87.6397547,15.9819817 87.701656,17.3092819 87.8254604,17.9160568 C88.0393044,18.8912308 88.548583,19.6740671 89.3533116,20.2645891 C90.1580402,20.8551111 91.2581946,21.1503677 92.6538078,21.1503677 C94.0719309,21.1503677 95.1411346,20.8713638 95.8614511,20.3133475 C96.5817676,19.7553313 97.0150765,19.070011 97.1613908,18.257366 C97.3077051,17.444721 97.3808612,16.0957506 97.3808612,14.2104142 L97.3808612,1.0293784 L102.378032,1.0293784 L102.378032,13.5440486 C102.378032,16.404559 102.242975,18.4253059 101.972856,19.6063499 C101.702737,20.787394 101.204713,21.7842236 100.478769,22.5968685 C99.7528254,23.4095135 98.7821009,24.056911 97.5665668,24.5390804 C96.3510327,25.0212497 94.7641093,25.2623308 92.8057488,25.2623308 C90.4422103,25.2623308 88.6498871,24.9995795 87.4287256,24.4740691 C86.207564,23.9485587 85.2424669,23.2659471 84.5334054,22.426214 C83.8243438,21.5864808 83.3572706,20.7061286 83.1321717,19.7851309 C82.8057783,18.4198874 82.642584,16.404558 82.642584,13.7390825 L82.642584,1.0293784 Z" id="Path" sketch:type="MSShapeGroup"></path>
            <path d="M104.068439,7.58568352 L108.501764,7.58568352 L108.501764,10.1388548 C109.077083,9.26597139 109.855446,8.55676423 110.836874,8.01121207 C111.818301,7.46565992 112.90688,7.19288793 114.102643,7.19288793 C116.189587,7.19288793 117.960643,7.98392669 119.415864,9.56602794 C120.871085,11.1481292 121.598684,13.3521268 121.598684,16.178087 C121.598684,19.0804245 120.865444,21.3362488 119.398943,22.9456277 C117.932442,24.5550065 116.155745,25.3596839 114.068801,25.3596839 C113.076092,25.3596839 112.176464,25.1687435 111.369888,24.786857 C110.563312,24.4049705 109.714446,23.7503177 108.823264,22.822879 L108.823264,31.5789474 L104.068439,31.5789474 L104.068439,7.58568352 Z M108.772501,15.9816892 C108.772501,17.9347659 109.172963,19.3777297 109.973898,20.3106239 C110.774834,21.2435181 111.750606,21.7099582 112.901246,21.7099582 C114.006762,21.7099582 114.926132,21.2817062 115.659383,20.4251893 C116.392634,19.5686724 116.759254,18.1638967 116.759254,16.21082 C116.759254,14.3886758 116.381353,13.0357267 115.625541,12.1519322 C114.869729,11.2681377 113.933438,10.8262471 112.816641,10.8262471 C111.65472,10.8262471 110.690228,11.2599546 109.923135,12.1273825 C109.156042,12.9948104 108.772501,14.2795665 108.772501,15.9816892 Z" id="Path" sketch:type="MSShapeGroup"></path>
            <path d="M12.8641268,32.6486947 L12.9821116,32.2576761 C12.9002698,32.2816637 12.8158172,32.3296383 12.7287514,32.4016013 C12.5615851,32.5352468 12.3831029,32.6706037 12.1932995,32.8076761 C12.0034961,32.9447484 11.8102129,33.080962 11.6134443,33.2163209 C11.4166756,33.3516799 11.2199099,33.4853234 11.0231412,33.6172555 C10.8263725,33.7491876 10.6391838,33.8785477 10.4615696,34.0053396 C10.5033612,33.9436571 10.538187,33.8759786 10.5660481,33.8023022 C10.5939091,33.7286259 10.6165459,33.6575207 10.633959,33.5889845 C10.6513722,33.5204483 10.6635612,33.4570533 10.6705265,33.3987976 C10.6774917,33.3405418 10.6809743,33.2942806 10.6809743,33.2600125 C10.6809743,33.0646844 10.642666,32.8659325 10.5660481,32.6637508 C10.4894302,32.4615691 10.3832115,32.2782376 10.2473889,32.1137508 C10.1115662,31.949264 9.95049694,31.8156205 9.76417616,31.7128163 C9.57785537,31.610012 9.37499512,31.5586107 9.15558934,31.5586107 C8.95707934,31.5586107 8.76292554,31.5928782 8.57312212,31.6614144 C8.3833187,31.7299506 8.18394104,31.8378934 7.97498314,31.9852462 C7.85657367,32.0674896 7.72945953,32.1685789 7.5936369,32.2885172 C7.45781427,32.4084555 7.32373496,32.5369589 7.19139496,32.6740312 C7.05905496,32.8111036 6.93455275,32.9524573 6.8178846,33.0980966 C6.70121644,33.243736 6.60109228,33.3850897 6.51750913,33.5221621 C6.53840492,33.3542484 6.574972,33.1572099 6.62721147,32.9310406 C6.67945095,32.7048712 6.73778415,32.4590014 6.80221283,32.1934237 C6.86664152,31.9278461 6.93368117,31.6502788 7.0033338,31.3607135 C7.07298643,31.0711482 7.13741415,30.7773037 7.19661888,30.4791714 C7.20010152,30.4723178 7.20793732,30.4371935 7.22012653,30.3737976 C7.23231574,30.3104016 7.24798735,30.2324429 7.26714182,30.1399191 C7.28629629,30.0473952 7.30632113,29.9480193 7.32721691,29.8417882 C7.3481127,29.7355572 7.36813753,29.6370379 7.38729201,29.5462275 C7.40644648,29.4554171 7.42211809,29.378315 7.4343073,29.3149191 C7.44649651,29.2515231 7.45259102,29.2181122 7.45259102,29.2146854 C7.45259102,29.115308 7.44214329,29.0262123 7.4212475,28.9473957 C7.40035171,28.8685791 7.36465527,28.802614 7.31415711,28.7494985 C7.26365895,28.696383 7.19574866,28.6552619 7.11042418,28.626134 C7.02509971,28.5970062 6.9180104,28.5824424 6.78915303,28.5824424 C6.72994829,28.5824424 6.66639122,28.5995762 6.59847991,28.6338443 C6.53056859,28.6681124 6.46527023,28.716087 6.40258286,28.7777695 C6.33989549,28.8394521 6.28330358,28.9131274 6.23280542,28.9987976 C6.18230726,29.0844678 6.14661083,29.1769902 6.12571504,29.2763677 C6.11526714,29.3277698 6.09785425,29.4202922 6.07347582,29.5539378 C6.0490974,29.6875833 6.02210741,29.8435007 5.99250505,30.0216948 C5.96290268,30.1998888 5.93155946,30.3883604 5.89847446,30.5871153 C5.86538946,30.7858702 5.83317561,30.9760552 5.80183192,31.1576761 C5.77048824,31.3392969 5.74349825,31.5012112 5.72086114,31.6434237 C5.69822404,31.7856363 5.68168179,31.8875823 5.67123389,31.9492649 C5.62595968,32.2165559 5.58068615,32.4932665 5.53541194,32.7794051 C5.49013773,33.0655436 5.44921742,33.3499644 5.41264979,33.6326761 C5.37608216,33.9153878 5.34560959,34.1895283 5.32123117,34.455106 C5.29685275,34.7206836 5.28466372,34.9665535 5.28466372,35.1927228 C5.28466372,35.6553419 5.33254919,35.9911641 5.42832156,36.2001994 C5.52409392,36.4092348 5.67297419,36.5137508 5.87496682,36.5137508 C6.03168524,36.5137508 6.16576454,36.4743431 6.27720875,36.3955265 C6.38865296,36.31671 6.44785681,36.2053404 6.45482207,36.0614144 L6.43392639,35.6347789 C6.44089165,35.4874261 6.48616518,35.3109481 6.56974834,35.1053396 C6.6533315,34.8997311 6.77348048,34.6838454 6.9301989,34.4576761 C7.0068168,34.3445914 7.09388128,34.2186581 7.19139496,34.0798723 C7.28890865,33.9410866 7.39338603,33.8005896 7.50483024,33.658377 C7.61627444,33.5161645 7.73555279,33.3765241 7.86266884,33.2394518 C7.98978489,33.1023794 8.11951097,32.9807296 8.25185097,32.8744985 C8.38419097,32.7682674 8.52001156,32.6825985 8.65931682,32.6174892 C8.79862208,32.5523798 8.93792526,32.5198256 9.07723052,32.5198256 C9.13295262,32.5198256 9.18780325,32.5369594 9.24178404,32.5712275 C9.29576483,32.6054956 9.34365029,32.6577536 9.38544187,32.7280032 C9.42723345,32.7982528 9.4611886,32.8882051 9.48730833,32.997863 C9.51342807,33.1075209 9.52648774,33.239451 9.52648774,33.3936574 C9.52648774,33.4861812 9.51342807,33.5829871 9.48730833,33.6840779 C9.4611886,33.7851688 9.4263628,33.8854014 9.38282991,33.9847789 C9.33929701,34.0841563 9.2905409,34.1783921 9.23656012,34.2674892 C9.18257933,34.3565862 9.1277287,34.437115 9.0720066,34.5090779 C8.97101028,34.6392967 8.87436871,34.751523 8.78207897,34.8457602 C8.68978923,34.9399974 8.59314766,35.026523 8.49215134,35.1053396 C8.39115503,35.1841562 8.28058314,35.2621149 8.16043235,35.3392181 C8.04028156,35.4163213 7.90010774,35.5045603 7.73990669,35.6039378 C7.70508037,35.6244986 7.64935911,35.6579095 7.57274121,35.7041714 C7.49612332,35.7504333 7.40905883,35.8052614 7.31154515,35.8686574 C7.21403147,35.9320533 7.11390731,36.0005885 7.01116968,36.0742649 C6.90843205,36.1479412 6.81440241,36.2241866 6.72907794,36.3030032 C6.64375346,36.3818198 6.57410188,36.4606352 6.52012109,36.5394518 C6.4661403,36.6182684 6.43915031,36.6919436 6.43915031,36.7604798 C6.43915031,36.8495768 6.46004579,36.9232521 6.50183736,36.9815079 C6.54362894,37.0397636 6.59673828,37.0860248 6.66116696,37.1202929 C6.72559564,37.154561 6.79611788,37.179405 6.87273577,37.1948256 C6.94935366,37.2102462 7.02248783,37.2179565 7.09214046,37.2179565 C7.37423362,37.2179565 7.61453159,37.1442812 7.81304159,36.9969284 C7.91752053,36.9215386 8.00893824,36.8512901 8.08729745,36.7861808 C8.16565666,36.7210714 8.23704954,36.6593898 8.30147822,36.601134 C8.3659069,36.5428783 8.42946398,36.4854801 8.49215134,36.4289378 C8.55483871,36.3723954 8.62274901,36.3167106 8.69588427,36.2618817 C8.74812374,36.2241868 8.8404121,36.1590784 8.97275209,36.0665546 C9.10509209,35.9740308 9.25919623,35.868658 9.43506912,35.7504331 C9.61094201,35.6322082 9.79726001,35.5071316 9.99402869,35.3751994 C10.1907974,35.2432673 10.3762447,35.1190474 10.5503763,35.0025359 C10.7245079,34.8860244 10.878612,34.7832217 11.0126933,34.6941247 C11.1467746,34.6050277 11.2381923,34.543346 11.2869492,34.5090779 C11.4227718,34.4199809 11.5681695,34.3223184 11.7231466,34.2160873 C11.8781237,34.1098562 12.0339691,33.9993433 12.1906876,33.8845452 C12.347406,33.7697472 12.4560403,33.640387 12.6005695,33.5221621 L12.6352234,33.407314 C12.626892,33.4438832 12.6188886,33.4804525 12.6112132,33.5170219 C12.5781282,33.6746551 12.5502676,33.8262891 12.5276305,33.9719284 C12.5049934,34.1175678 12.4875805,34.2486412 12.4753913,34.3651527 C12.4632021,34.4816642 12.4544956,34.5793268 12.4492717,34.6581434 C12.4440477,34.73696 12.4414358,34.7849346 12.4414358,34.8020686 C12.4414358,34.9768358 12.4527542,35.1567406 12.4753913,35.3417882 C12.4980284,35.5268359 12.5511377,35.6956037 12.6347209,35.8480966 C12.718304,36.0005896 12.8428062,36.1256662 13.0082312,36.2233303 C13.1736562,36.3209943 13.3991532,36.3698256 13.684729,36.3698256 C13.9041348,36.3595452 14.109607,36.3192808 14.3011517,36.2490312 C14.4926965,36.1787816 14.6676961,36.0965395 14.8261558,36.0023022 C14.9846155,35.908065 15.12566,35.8104024 15.2492934,35.7093116 C15.3729268,35.6082207 15.4765336,35.5216951 15.5601167,35.4497322 C15.6541478,35.3709156 15.7490481,35.2783931 15.8448204,35.1721621 C15.9405928,35.065931 16.0328812,34.9562748 16.1216883,34.8431901 C16.2104954,34.7301054 16.2940773,34.6178791 16.3724365,34.5065079 C16.4507957,34.3951366 16.5178353,34.2949039 16.5735574,34.2058069 C16.5735574,34.5039393 16.6075126,34.7575193 16.6754239,34.9665546 C16.7433352,35.1755899 16.8382355,35.3469277 16.9601276,35.4805733 C17.0820197,35.6142188 17.2256761,35.7110247 17.3911011,35.7709938 C17.5565261,35.830963 17.7384909,35.8609471 17.9370009,35.8609471 C18.1320283,35.8609471 18.3375004,35.8112591 18.5534236,35.7118817 C18.7693467,35.6125042 18.9878786,35.478004 19.2090257,35.308377 C19.4301728,35.13875 19.6504459,34.9408548 19.8698517,34.7146854 C19.9111051,34.6721603 19.9520199,34.629181 19.9925959,34.5857475 C19.9695142,34.6971537 19.9503659,34.8035281 19.9351507,34.9048723 C19.9125136,35.0556519 19.9011953,35.1824419 19.9011953,35.2852462 C19.9011953,35.4223185 19.9334091,35.5636722 19.9978378,35.7093116 C20.0622665,35.854951 20.1571668,35.9885945 20.2825415,36.1102462 C20.4079162,36.2318979 20.562891,36.3321305 20.7474705,36.4109471 C20.93205,36.4897637 21.1444873,36.5291714 21.3847889,36.5291714 C21.4962331,36.5291714 21.6137701,36.5128943 21.7374036,36.4803396 C21.861037,36.447785 21.9864098,36.4040938 22.1135259,36.3492649 C22.2406419,36.2944359 22.3686267,36.2318976 22.4974841,36.161648 C22.6263415,36.0913985 22.7491024,36.0177232 22.8657705,35.94062 C22.9824387,35.8635168 23.0930106,35.7872715 23.1974895,35.7118817 C23.3019685,35.6364919 23.3942568,35.5662434 23.4743574,35.501134 C23.4430137,35.5833774 23.4038347,35.6861801 23.3568191,35.8095452 C23.3098036,35.9329103 23.2601769,36.0631271 23.2079374,36.2001994 C23.1556979,36.3372718 23.1043299,36.4743421 23.0538317,36.6114144 C23.0033335,36.7484867 22.9571894,36.87185 22.9153978,36.9815079 C22.8736062,37.0911657 22.8396511,37.1794047 22.8135313,37.2462275 C22.7874116,37.3130502 22.7743519,37.3464611 22.7743519,37.3464611 C22.7151472,37.5075211 22.6515901,37.6711488 22.5836788,37.837349 C22.5157675,38.0035492 22.4530811,38.16118 22.3956176,38.3102462 C22.3381542,38.4593123 22.2902687,38.5963826 22.2519598,38.7214611 C22.2136509,38.8465396 22.1944967,38.9467723 22.1944967,39.0221621 C22.1944967,39.0872714 22.2075563,39.1532365 22.2336761,39.2200593 C22.2597958,39.286882 22.2963629,39.3468503 22.3433784,39.3999658 C22.3903939,39.4530813 22.4478565,39.4967725 22.5157678,39.5310406 C22.5836791,39.5653086 22.6611665,39.5824424 22.7482323,39.5824424 C22.9014681,39.5824424 23.0250997,39.5447481 23.1191307,39.4693583 C23.2131618,39.3939685 23.2889079,39.3023028 23.3463713,39.1943583 C23.4038347,39.0864139 23.4491082,38.9707608 23.4821932,38.8473957 C23.5152782,38.7240306 23.5457508,38.6160878 23.5736119,38.5235639 C23.5770945,38.5132835 23.5927661,38.4644522 23.6206272,38.3770686 C23.6484882,38.289685 23.683314,38.1791721 23.7251056,38.0455265 C23.7668972,37.911881 23.8147826,37.7619604 23.8687634,37.5957602 C23.9227442,37.42956 23.9767242,37.2590788 24.030705,37.0843116 C24.0846858,36.9095444 24.1377951,36.7390632 24.1900346,36.572863 C24.242274,36.4066628 24.2892889,36.2575989 24.3310804,36.1256667 C24.372872,35.9937346 24.4068272,35.8857918 24.4329469,35.801835 C24.4590666,35.7178782 24.4738676,35.6707602 24.4773502,35.6604798 C24.5330723,35.4685785 24.5975001,35.2655432 24.6706353,35.0513677 C24.7437706,34.8371921 24.8177754,34.6238765 24.892652,34.4114144 C24.9675285,34.1989523 25.042404,33.9924902 25.1172806,33.7920219 C25.1921572,33.5915536 25.2583262,33.4073654 25.3157896,33.2394518 C25.373253,33.0715382 25.4211385,32.9250443 25.4594474,32.7999658 C25.4977564,32.6748873 25.5186518,32.5832215 25.5221345,32.5146854 C25.5221345,32.3913203 25.51604,32.2876609 25.5038508,32.2037041 C25.4916615,32.1197473 25.4664128,32.0529255 25.4281039,32.0032368 C25.3897949,31.9535481 25.3349443,31.9184238 25.2635504,31.897863 C25.1921564,31.8773021 25.0972561,31.8670219 24.9788467,31.8670219 C24.9266072,31.8670219 24.8700153,31.8798722 24.8090692,31.9055733 C24.7481232,31.9312743 24.6889193,31.9689687 24.6314559,32.0186574 C24.5739925,32.0683461 24.5200125,32.1317411 24.4695144,32.2088443 C24.4190162,32.2859475 24.3780959,32.3758999 24.3467522,32.4787041 C24.3049606,32.6226301 24.2553339,32.782831 24.1978704,32.9593116 C24.140407,33.1357922 24.0820738,33.3079868 24.0228691,33.4759004 C23.9636644,33.643814 23.9070724,33.7937346 23.8530916,33.9256667 C23.7991109,34.0575989 23.7529667,34.1492646 23.7146577,34.2006667 C23.6310746,34.3137514 23.5318211,34.4156974 23.4168942,34.5065079 C23.3019674,34.5973183 23.19749,34.6718502 23.103459,34.730106 C22.9885321,34.7986422 22.8675125,34.8748875 22.7403964,34.9588443 C22.6132804,35.0428011 22.4826837,35.1216165 22.3486023,35.1952929 C22.214521,35.2689693 22.0795711,35.3306509 21.9437484,35.3803396 C21.8079258,35.4300284 21.6773291,35.4548723 21.5519544,35.4548723 C21.5206107,35.4548723 21.4796904,35.4488755 21.4291922,35.4368817 C21.3786941,35.4248879 21.3299379,35.4060407 21.2829224,35.3803396 C21.2359069,35.3546386 21.1949866,35.3195143 21.1601603,35.2749658 C21.125334,35.2304173 21.1079211,35.1755892 21.1079211,35.1104798 C21.1079211,34.9220054 21.1288165,34.7352471 21.1706081,34.5501994 C21.2123997,34.3651518 21.2628971,34.1878171 21.3221018,34.0181901 C21.3813066,33.8485631 21.4457343,33.6909323 21.5153869,33.5452929 C21.5850395,33.3996535 21.6459847,33.2737202 21.6982242,33.1674892 C21.7574289,33.0441241 21.8070556,32.9378946 21.8471059,32.8487976 C21.8871562,32.7597006 21.907181,32.6911654 21.907181,32.6431901 C21.907181,32.5643735 21.9002158,32.4906982 21.8862853,32.4221621 C21.8723548,32.3536259 21.8462354,32.2919443 21.8079265,32.2371153 C21.7696175,32.1822864 21.7165082,32.1394519 21.6485969,32.1086107 C21.5806856,32.0777694 21.4927505,32.062349 21.3847889,32.062349 C21.3582435,32.062349 21.3321163,32.0639943 21.3064072,32.0672851 C21.2860755,32.0639943 21.2686701,32.062349 21.2541908,32.062349 C21.1288161,32.062349 20.9999607,32.1300274 20.8676207,32.2653864 C20.7352807,32.4007453 20.5890123,32.5712265 20.4288113,32.776835 C20.3173671,32.9173341 20.1980887,33.066398 20.0709727,33.2240312 C19.9438566,33.3816644 19.8115186,33.5375819 19.6739547,33.6917882 C19.5363907,33.8459946 19.3970876,33.9924885 19.256041,34.1312742 C19.1149944,34.27006 18.9748206,34.3925665 18.8355153,34.4987976 C18.6962101,34.6050286 18.5612601,34.6898409 18.4306614,34.7532368 C18.3000628,34.8166328 18.1755605,34.8483303 18.0571511,34.8483303 C17.9004327,34.8483303 17.779413,34.7618047 17.6940885,34.5887508 C17.6087641,34.415697 17.5661025,34.1783941 17.5661025,33.876835 C17.5661025,33.7020677 17.5782915,33.5093126 17.6026699,33.2985639 C17.6270483,33.0878152 17.6566503,32.8839232 17.6914766,32.6868817 C17.7263029,32.4898402 17.7602581,32.3116488 17.7933431,32.1523022 C17.826428,31.9929557 17.8499355,31.879016 17.863866,31.8104798 C17.8569007,31.6836879 17.8116272,31.5766017 17.728044,31.4892181 C17.6444609,31.4018345 17.5243119,31.3581434 17.3675935,31.3581434 C17.315354,31.3581434 17.2605034,31.3692803 17.20304,31.3915546 C17.1455765,31.4138288 17.0915966,31.4412429 17.0410984,31.4737976 C16.9906002,31.5063523 16.9461974,31.5423332 16.9078884,31.5817415 C16.8695795,31.6211498 16.8434601,31.6579874 16.8295296,31.6922555 C16.8086338,31.7436576 16.7912209,31.7899189 16.7772904,31.8310406 C16.7633598,31.8721623 16.7520415,31.91157 16.7433349,31.9492649 C16.7346283,31.9869598 16.7259219,32.0237974 16.7172153,32.0597789 C16.7085087,32.0957604 16.6989316,32.1377381 16.6884837,32.1857135 C16.6745532,32.2405424 16.6519164,32.313361 16.6205727,32.4041714 C16.5892291,32.4949818 16.5544033,32.5900743 16.5160943,32.6894518 C16.4777854,32.7888292 16.4377357,32.8839217 16.3959441,32.9747322 C16.3541525,33.0655426 16.3175855,33.1383612 16.2862418,33.1931901 C16.227037,33.2994212 16.1469377,33.4244978 16.0459414,33.5684237 C15.9449451,33.7123497 15.8352438,33.8588436 15.7168344,34.0079097 C15.5984249,34.1569759 15.4774053,34.2983296 15.3537718,34.4319751 C15.2301384,34.5656207 15.116084,34.6752769 15.011605,34.7609471 C14.9245392,34.8329101 14.8331215,34.9040153 14.7373491,34.9742649 C14.6415768,35.0445144 14.5431939,35.1070528 14.4421976,35.1618817 C14.3412013,35.2167106 14.2375945,35.2612585 14.1313743,35.2955265 C14.025154,35.3297946 13.9163234,35.3469284 13.8048792,35.3469284 C13.7247787,35.3469284 13.660351,35.3049506 13.6115941,35.2209938 C13.5628373,35.137037 13.5384592,35.0230974 13.5384592,34.8791714 C13.5384592,34.5947463 13.5619666,34.3291726 13.6089822,34.0824424 C13.6559977,33.8357122 13.7073657,33.6163998 13.7630878,33.4244985 C13.8188099,33.2325972 13.870178,33.0715397 13.9171935,32.9413209 C13.964209,32.8111022 13.9877165,32.7202932 13.9877165,32.668891 C13.9877165,32.6037817 13.97901,32.5369599 13.9615968,32.4684237 C13.9441837,32.3998876 13.9137111,32.3382059 13.8701782,32.283377 C13.8266453,32.2285481 13.7691828,32.1831435 13.6977888,32.1471621 C13.6263949,32.1111806 13.5367185,32.0931901 13.4287569,32.0931901 C13.3451737,32.0966169 13.2755221,32.1120373 13.2198,32.1394518 C13.1640779,32.1668662 13.1170631,32.2019905 13.0787542,32.2448256 C13.0404452,32.2876607 13.0064901,32.3390621 12.9768877,32.3990312 C12.9472853,32.4590004 12.9168128,32.5249654 12.8854691,32.5969284 C12.8782515,32.6140566 12.8711374,32.631312 12.8641268,32.6486947 Z M27.9669296,35.6553396 C27.9669296,35.7307294 27.9495167,35.8489525 27.9146904,36.0100125 C27.9042425,36.0579878 27.8676754,36.1179561 27.804988,36.1899191 C27.7423007,36.261882 27.6500123,36.3458376 27.5281202,36.4417882 C27.416676,36.5308852 27.3148106,36.597707 27.2225208,36.6422555 C27.1302311,36.686804 27.0527437,36.7090779 26.9900563,36.7090779 C26.8577163,36.7090779 26.7514977,36.6945142 26.6713971,36.6653864 C26.5912966,36.6362585 26.5294808,36.5917106 26.4859479,36.5317415 C26.442415,36.4717724 26.4136838,36.3938136 26.3997532,36.297863 C26.3858227,36.2019124 26.3788576,36.087116 26.3788576,35.9534705 C26.3788576,35.8575198 26.3797282,35.776991 26.3814695,35.7118817 C26.3832108,35.6467723 26.3893053,35.5902308 26.3997532,35.5422555 C26.4310969,35.3058057 26.7358226,35.1875826 27.3139394,35.1875826 C27.4532447,35.1875826 27.5638166,35.2047164 27.6456584,35.2389845 C27.7275003,35.2732526 27.8015051,35.3280807 27.8676751,35.4034705 C27.9338451,35.4685798 27.9669296,35.5525354 27.9669296,35.6553396 L27.9669296,35.6553396 Z M40.7812083,32.2525359 C40.7812083,32.1188904 40.7594422,32.0246545 40.7159093,31.9698256 C40.6723764,31.9149967 40.6297148,31.8875826 40.5879232,31.8875826 C40.4938922,31.8875826 40.3989919,31.9184234 40.3032195,31.980106 C40.2074472,32.0417885 40.1151588,32.1240307 40.0263517,32.226835 C39.9375446,32.3296392 39.8522214,32.4470056 39.7703796,32.5789378 C39.6885377,32.7108699 39.6162742,32.8479402 39.5535868,32.9901527 C39.4908995,33.1323653 39.4386608,33.2728623 39.3968692,33.411648 C39.3550776,33.5504338 39.327217,33.6763671 39.3132865,33.7894518 C39.5326922,33.6146846 39.7329406,33.4510569 39.9140374,33.2985639 C40.0951342,33.146071 40.2492384,33.0047172 40.3763544,32.8744985 C40.5034705,32.7442798 40.602724,32.6269134 40.6741179,32.5223957 C40.7455119,32.417878 40.7812083,32.3279257 40.7812083,32.2525359 L40.7812083,32.2525359 Z M93.1725224,34.390361 C93.132874,34.4224497 93.09088,34.4603084 93.04654,34.5039378 C92.98037,34.5759007 92.9020119,34.6444359 92.8114635,34.7095452 C92.5816098,34.8843125 92.375267,35.0299496 92.1924289,35.1464611 C92.0095907,35.2629726 91.8415563,35.3554951 91.6883205,35.4240312 C91.5350847,35.4925674 91.3914283,35.540542 91.257347,35.5679565 C91.1232657,35.5953709 90.9883157,35.6090779 90.8524931,35.6090779 C90.7932883,35.6090779 90.7332138,35.5945142 90.6722678,35.5653864 C90.6113217,35.5362585 90.5564711,35.4814304 90.5077143,35.4009004 C90.4589574,35.3203704 90.4189078,35.2072874 90.3875641,35.061648 C90.3562204,34.9160087 90.3405488,34.7266804 90.3405488,34.4936574 C90.3405488,34.3120365 90.3492552,34.1055744 90.3666684,33.8742649 C90.3840816,33.6429553 90.4058477,33.4142193 90.4319674,33.1880499 C90.4580872,32.9618806 90.4868184,32.7502783 90.5181621,32.5532368 C90.5495058,32.3561953 90.5773664,32.2011346 90.6017449,32.0880499 C90.6052275,32.0709159 90.6130633,32.037505 90.6252525,31.9878163 C90.6374417,31.9381275 90.6522427,31.879016 90.6696558,31.8104798 C90.687069,31.7419436 90.7053525,31.6691251 90.724507,31.5920219 C90.7436615,31.5149187 90.761945,31.4412434 90.7793582,31.3709938 C90.7967713,31.3007443 90.8115723,31.2390626 90.8237615,31.1859471 C90.8359507,31.1328316 90.8455278,31.0959939 90.8524931,31.0754331 C90.8977673,30.9075195 90.9430408,30.7404651 90.988315,30.5742649 C91.0335892,30.4080647 91.0745095,30.2504338 91.1110772,30.1013677 C91.1476448,29.9523015 91.1781174,29.8143745 91.2024958,29.6875826 C91.2268742,29.5607907 91.2390632,29.4511345 91.2390632,29.3586107 C91.2390632,29.2763673 91.2338394,29.2009786 91.2233915,29.1324424 C91.2129436,29.0639063 91.1894362,29.0047947 91.1528685,28.955106 C91.1163009,28.9054173 91.0623209,28.8668662 90.990927,28.8394518 C90.919533,28.8120373 90.8246328,28.7983303 90.7062233,28.7983303 C90.6121922,28.7983303 90.5190332,28.8308845 90.4267435,28.8959938 C90.3344538,28.9611032 90.2500012,29.0424887 90.1733833,29.1401527 C90.0967654,29.2378168 90.0297258,29.3423328 89.9722624,29.4537041 C89.9147989,29.5650754 89.8721373,29.6687348 89.8442763,29.7646854 C89.8164152,29.8572093 89.787684,29.9642954 89.7580816,30.0859471 C89.7284792,30.2075988 89.6980066,30.3352455 89.666663,30.468891 C89.6353193,30.6025366 89.6057174,30.7370368 89.5778563,30.8723957 C89.5499952,31.0077546 89.5256172,31.1371147 89.5047214,31.2604798 C89.4882472,31.3577409 89.4701827,31.463999 89.4505278,31.5792558 C89.4296051,31.6130732 89.4093609,31.6438861 89.3897951,31.6716948 C89.2086983,31.9835343 89.0040968,32.2756654 88.7759844,32.5480966 C88.547872,32.8205279 88.3084447,33.0775347 88.0576952,33.3191247 C87.8069458,33.5607147 87.5492349,33.7894507 87.2845549,34.0053396 C87.0198749,34.2212286 86.7586814,34.4285474 86.5009667,34.6273022 C86.601963,34.4868031 86.6968633,34.3214621 86.7856704,34.1312742 C86.8744775,33.9410863 86.9519649,33.7483313 87.0181349,33.5530032 C87.0843049,33.3576751 87.1365436,33.1717735 87.1748525,32.9952929 C87.2131615,32.8188123 87.2323157,32.6757452 87.2323157,32.5660873 C87.2323157,32.4392954 87.2018431,32.3116487 87.1408971,32.1831434 C87.079951,32.0546381 86.9972397,31.9381283 86.8927608,31.8336107 C86.7882819,31.729093 86.6672622,31.6442808 86.5296983,31.5791714 C86.3921343,31.514062 86.2467366,31.4815079 86.0935009,31.4815079 C85.9541956,31.4815079 85.8122805,31.5054952 85.6677513,31.5534705 C85.5232221,31.6014458 85.3804363,31.6639841 85.2393897,31.7410873 C85.0983432,31.8181905 84.9625226,31.9047161 84.8319239,32.0006667 C84.7013252,32.0966174 84.5820469,32.1942799 84.4740853,32.2936574 C84.3905021,32.3690472 84.3008257,32.4667097 84.2050533,32.586648 C84.109281,32.7065863 84.0126394,32.8359464 83.9151257,32.9747322 C83.817612,33.1135179 83.7218411,33.2557283 83.62781,33.4013677 C83.533779,33.547007 83.4501971,33.684934 83.3770618,33.8151527 C83.3979576,33.7363361 83.4197237,33.6412436 83.4423608,33.5298723 C83.4649979,33.4185011 83.4850228,33.3062748 83.5024359,33.1931901 C83.5198491,33.0801054 83.5346501,32.9730193 83.5468393,32.8719284 C83.5590285,32.7708376 83.565123,32.6877387 83.565123,32.6226294 C83.565123,32.5540932 83.552934,32.4838447 83.5285555,32.4118817 C83.5041771,32.3399187 83.4684807,32.2739536 83.4214652,32.2139845 C83.3744496,32.1540153 83.3161164,32.1051841 83.2464638,32.0674892 C83.1768112,32.0297943 83.0967118,32.0109471 83.0061634,32.0109471 C82.8041708,32.0109471 82.6544199,32.0820523 82.5569062,32.2242649 C82.4593925,32.3664774 82.3914822,32.5635159 82.3531733,32.8153864 C82.3295931,32.9704192 82.3119507,33.143627 82.3002459,33.3350116 L82.3002459,33.3350116 C82.1350761,33.4988831 81.9751061,33.6563592 81.8203333,33.8074424 C81.6009275,34.021618 81.3850076,34.2212266 81.1725671,34.4062742 C80.9740571,34.5810414 80.792963,34.7061181 80.6292793,34.7815079 C80.4655956,34.8568976 80.341964,34.894592 80.2583809,34.894592 C80.1887282,34.894592 80.1147234,34.8671779 80.0363642,34.812349 C79.958005,34.75752 79.8822589,34.6864148 79.8091236,34.5990312 C79.7359884,34.5116476 79.6672074,34.413985 79.6027788,34.3060406 C79.5383501,34.1980961 79.4834995,34.0892966 79.4382252,33.9796387 C79.3999163,33.8905417 79.3563841,33.7808855 79.3076272,33.6506667 C79.2588704,33.520448 79.208373,33.3876612 79.1561335,33.2523022 C79.103894,33.1169433 79.0507847,32.9867265 78.9968039,32.861648 C78.9428231,32.7365695 78.8897138,32.6329101 78.8374743,32.5506667 C78.7190648,32.3724727 78.5205578,32.283377 78.2419473,32.283377 C77.9598541,32.283377 77.6899542,32.4221607 77.4322395,32.6997322 C77.31383,32.8299509 77.1989049,32.9653078 77.0874607,33.1058069 C76.9760165,33.2463061 76.8663152,33.4193573 76.7583537,33.6249658 C76.7513884,33.638673 76.7304929,33.6797941 76.6956666,33.7483303 C76.6608403,33.8168665 76.61992,33.8991086 76.5729045,33.9950593 C76.5258889,34.0910099 76.4745209,34.1920992 76.4187988,34.2983303 C76.3630767,34.4045613 76.3117086,34.5022239 76.2646931,34.5913209 C76.2176776,34.680418 76.1767573,34.7549499 76.141931,34.8149191 C76.1071046,34.8748882 76.0862092,34.9048723 76.0792439,34.9048723 C76.0548655,34.9048723 76.0357113,34.8766016 76.0217808,34.8200593 C76.0078502,34.7635169 75.9974025,34.6966952 75.9904372,34.619592 C75.983472,34.5424888 75.9782481,34.4662434 75.9747655,34.3908536 C75.9712828,34.3154639 75.9678003,34.2589224 75.9643176,34.2212275 C75.9469045,33.9779241 75.9251384,33.7363377 75.8990186,33.4964611 C75.8728989,33.2565845 75.8319786,33.0424122 75.7762565,32.8539378 C75.7205344,32.6654633 75.6421763,32.5129726 75.54118,32.3964611 C75.4401837,32.2799496 75.3061044,32.2216948 75.1389381,32.2216948 C74.9404281,32.2216948 74.7497569,32.2653859 74.5669187,32.3527695 C74.3840806,32.4401532 74.2143048,32.5712266 74.0575864,32.7459938 C73.9565901,32.8590785 73.839053,33.0064291 73.7049717,33.1880499 C73.5708904,33.3696708 73.4307166,33.567566 73.2844461,33.7817415 C73.1381755,33.995917 72.9910366,34.2177995 72.8430247,34.4473957 C72.6950129,34.6769919 72.5583216,34.8945909 72.4329469,35.1001994 C72.4364295,35.000822 72.4512305,34.8843123 72.4773502,34.7506667 C72.50347,34.6170212 72.5356838,34.4756675 72.5739928,34.3266013 C72.6123017,34.1775351 72.6523514,34.0259011 72.694143,33.8716948 C72.7359345,33.7174884 72.7751136,33.5684245 72.8116812,33.4244985 C72.8482488,33.2805726 72.8787214,33.1477857 72.9030998,33.026134 C72.9274782,32.9044823 72.9396673,32.8025363 72.9396673,32.7202929 C72.9396673,32.4427214 72.8891699,32.2422561 72.7881735,32.118891 C72.6871772,31.9955259 72.5182721,31.9338443 72.2814532,31.9338443 C72.1351827,31.9338443 72.0211282,31.9749654 71.9392863,32.0572088 C71.8574445,32.1394522 71.8165242,32.2405415 71.8165242,32.3604798 C71.8165242,32.44615 71.8139123,32.5301056 71.8086883,32.612349 C71.8034644,32.6945924 71.792146,32.7913983 71.7747328,32.9027695 C71.7621232,32.9834183 71.7463179,33.0770939 71.7273165,33.183798 C71.7265823,33.183497 71.7258453,33.1832009 71.7251056,33.1829097 C71.6815727,33.1657757 71.6406524,33.1572088 71.6023434,33.1572088 C71.5744824,33.1572088 71.5466217,33.164919 71.5187607,33.1803396 C71.4908996,33.1957603 71.4647803,33.2146074 71.4404019,33.2368817 C71.4160235,33.2591559 71.3933867,33.2814299 71.3724909,33.3037041 C71.3515951,33.3259784 71.3341822,33.3456822 71.3202517,33.3628163 C71.2680122,33.4176452 71.2183855,33.4699032 71.1713699,33.519592 C71.1243544,33.5692807 71.0764689,33.620682 71.0277121,33.6737976 C70.9789553,33.7269131 70.9258459,33.7825979 70.8683825,33.8408536 C70.8109191,33.8991094 70.747362,33.9642178 70.6777094,34.0361808 C70.5244736,34.1938139 70.3721107,34.3394511 70.2206163,34.4730966 C70.0691218,34.6067422 69.9150177,34.7403857 69.7582992,34.8740312 C69.5911329,35.0179572 69.4283223,35.1447472 69.2698626,35.2544051 C69.1114029,35.3640629 68.95904,35.4600121 68.8127695,35.5422555 C68.6595337,35.6279257 68.5150067,35.6836105 68.379184,35.7093116 C68.2433614,35.7350127 68.1214711,35.747863 68.0135096,35.747863 C67.9403743,35.747863 67.8759466,35.7007451 67.8202245,35.6065079 C67.7645024,35.5122706 67.7174876,35.3957609 67.6791786,35.2569751 C67.6408697,35.1181894 67.6121384,34.9682688 67.5929839,34.8072088 C67.5738294,34.6461488 67.5642523,34.5005116 67.5642523,34.3702929 C67.5642523,34.2983299 67.5677349,34.2229413 67.5747002,34.1441247 C67.5816654,34.0653081 67.5912425,33.9770691 67.6034317,33.8794051 C67.615621,33.781741 67.6304219,33.6720848 67.6478351,33.5504331 C67.6652482,33.4287814 67.6844024,33.2908544 67.7052982,33.136648 C67.7227114,33.0064293 67.7418656,32.8779259 67.7627613,32.751134 C67.7836571,32.6243421 67.7941049,32.5146859 67.7941049,32.4221621 C67.7941049,32.154871 67.680921,32.0212275 67.45455,32.0212275 C67.2316616,32.0212275 67.029672,32.0931894 66.8485751,32.2371153 C66.7580267,32.3056515 66.6822806,32.3801835 66.6213346,32.4607135 C66.5666195,32.5330103 66.5252378,32.6087585 66.4971886,32.6879599 L66.4971886,32.6879599 C66.4307056,32.750367 66.3606443,32.8202565 66.2870036,32.8976294 C66.184266,33.0055738 66.0754354,33.1195135 65.9605085,33.2394518 C65.748068,33.4656211 65.5713271,33.6489526 65.4302805,33.7894518 C65.2892339,33.9299509 65.1647317,34.0498874 65.0567702,34.1492649 C64.9488086,34.2486423 64.8460725,34.337738 64.7485588,34.4165546 C64.6510451,34.4953712 64.5378613,34.5844669 64.4090039,34.6838443 C64.3915908,34.6084545 64.341964,34.5313525 64.2601222,34.4525359 C64.1782803,34.3737193 64.0816388,34.2949039 63.9701945,34.2160873 C63.8448198,34.1269903 63.7124818,34.0276143 63.5731765,33.9179565 C63.4338713,33.8082986 63.3067571,33.7020691 63.1918303,33.5992649 C63.0769034,33.4964606 62.9811325,33.4030815 62.9045146,33.3191247 C62.8278967,33.2351679 62.7895884,33.1726296 62.7895884,33.1315079 C62.7895884,33.1040934 62.8113545,33.0663991 62.8548874,33.0184237 C62.8984203,32.9704484 62.9524002,32.9147636 63.0168289,32.8513677 C63.0812576,32.7879717 63.1509092,32.7194366 63.2257858,32.6457602 C63.3006624,32.5720838 63.3703139,32.4949818 63.4347426,32.4144518 C63.4991713,32.3339218 63.5531513,32.2516796 63.5966842,32.1677228 C63.6402171,32.083766 63.6619832,32.0023805 63.6619832,31.9235639 C63.6619832,31.8618814 63.6454409,31.8010564 63.6123559,31.7410873 C63.5792709,31.6811181 63.5357387,31.6280034 63.4817579,31.5817415 C63.4277771,31.5354796 63.3659613,31.4986419 63.2963087,31.4712275 C63.2266561,31.443813 63.1535219,31.430106 63.076904,31.430106 C63.0246645,31.430106 62.9593662,31.4498098 62.881007,31.4892181 C62.8026478,31.5286264 62.7216778,31.5791711 62.6380946,31.6408536 C62.5545115,31.7025362 62.4744122,31.7710713 62.3977943,31.8464611 C62.3211764,31.9218509 62.2567487,31.9972396 62.2045092,32.0726294 C62.1104781,32.2131285 62.0321201,32.3373484 61.9694327,32.4452929 C61.9067454,32.5532374 61.8571186,32.6568968 61.820551,32.7562742 C61.7839833,32.8556517 61.757864,32.9558843 61.7421922,33.0569751 C61.7265203,33.158066 61.7186845,33.2720057 61.7186845,33.3987976 C61.7186845,33.4673337 61.7378387,33.5470058 61.7761476,33.6378163 C61.8144566,33.7286267 61.8693072,33.8211491 61.9407012,33.9153864 C62.0120951,34.0096236 62.0982889,34.1038594 62.1992853,34.1980966 C62.3002816,34.2923339 62.4134654,34.3788595 62.5388401,34.4576761 C62.852277,34.6530042 63.0760327,34.8183452 63.210114,34.9537041 C63.3441953,35.089063 63.411235,35.2115696 63.411235,35.3212275 C63.411235,35.4720071 63.3616082,35.623641 63.2623532,35.776134 C63.1630982,35.928627 63.0089941,36.0648406 62.8000362,36.1847789 C62.6711788,36.2567419 62.5336169,36.3312738 62.3873464,36.408377 C62.2410759,36.4854802 62.106126,36.5677224 61.9824925,36.655106 C61.8588591,36.7424896 61.756123,36.8358687 61.6742812,36.9352462 C61.5924393,37.0346236 61.551519,37.1442798 61.551519,37.2642181 C61.551519,37.3361811 61.5689319,37.3995761 61.6037582,37.4544051 C61.6385846,37.509234 61.6873407,37.5554952 61.750028,37.5931901 C61.8127154,37.630885 61.8858496,37.6600124 61.9694327,37.6805733 C62.0530159,37.7011341 62.1435629,37.7114144 62.2410766,37.7114144 C62.4465519,37.7114144 62.6441883,37.6523028 62.8339917,37.5340779 C63.0237951,37.4158531 63.2179489,37.2693592 63.4164589,37.094592 C63.4373547,37.0740311 63.4800163,37.0311967 63.544445,36.9660873 C63.6088737,36.9009779 63.6820078,36.8238759 63.7638497,36.7347789 C63.8456915,36.6456819 63.9336266,36.551446 64.0276577,36.4520686 C64.1216887,36.3526912 64.2096239,36.2584553 64.2914657,36.1693583 C64.3733075,36.0802613 64.4447004,36.0031593 64.5056465,35.9380499 C64.5665925,35.8729406 64.6057715,35.8318195 64.6231847,35.8146854 C64.6475631,35.7906978 64.6893541,35.7504334 64.7485588,35.693891 C64.8077635,35.6373487 64.8756738,35.5722403 64.9522917,35.4985639 C65.0289096,35.4248875 65.1098796,35.3477855 65.1952041,35.2672555 C65.2805285,35.1867255 65.3597572,35.1113369 65.4328925,35.0410873 C65.5060277,34.9708377 65.5695848,34.9100128 65.6235656,34.8586107 C65.6775464,34.8072085 65.7115015,34.7746543 65.7254321,34.7609471 C65.8090152,34.6821305 65.9039155,34.5818979 66.0101358,34.4602462 C66.1032876,34.3535615 66.1991166,34.2396307 66.2976249,34.1184513 C66.2957679,34.1600571 66.2948395,34.1960292 66.2948395,34.2263677 C66.2948395,34.4114153 66.3035459,34.6067405 66.3209591,34.812349 C66.3383722,35.0179575 66.3705861,35.2209928 66.4176016,35.4214611 C66.4646172,35.6219294 66.5281742,35.8121144 66.6082748,35.9920219 C66.6883753,36.1719293 66.791982,36.3312735 66.9190981,36.4700593 C67.0462141,36.608845 67.1994476,36.7185012 67.3788031,36.7990312 C67.5581587,36.8795612 67.7697254,36.9198256 68.0135096,36.9198256 C68.2224675,36.9198256 68.4436112,36.8727077 68.6769476,36.7784705 C68.9102839,36.6842332 69.1470993,36.5514464 69.3874008,36.380106 C69.5058103,36.2944358 69.6181235,36.2087669 69.7243438,36.1230966 C69.830564,36.0374264 69.935912,35.9500441 70.040391,35.8609471 C70.1448699,35.7718501 70.2484767,35.6776143 70.3512143,35.5782368 C70.4539519,35.4788594 70.5627825,35.3726299 70.6777094,35.2595452 C70.7543273,35.1841555 70.8370385,35.0942031 70.9258456,34.9896854 C71.0146527,34.8851678 71.1025879,34.7746549 71.1896537,34.6581434 C71.2767194,34.5416319 71.3620426,34.4251221 71.4456258,34.3086107 C71.4787785,34.2623971 71.5102874,34.2172621 71.5401524,34.1732053 L71.5401524,34.1732053 C71.5277248,34.2403032 71.516241,34.3025721 71.5057009,34.3600125 C71.4830638,34.4833776 71.4647802,34.598174 71.4508497,34.7044051 C71.4369192,34.8106361 71.4264715,34.9134388 71.4195062,35.0128163 C71.4125409,35.1121937 71.4090583,35.2218499 71.4090583,35.3417882 C71.4090583,35.5028482 71.4160235,35.657909 71.429954,35.8069751 C71.4438846,35.9560413 71.4717452,36.1042486 71.5135368,36.2516013 C71.5622936,36.4160881 71.6354278,36.5394514 71.7329415,36.6216948 C71.8304551,36.7039382 71.9714996,36.7450593 72.1560791,36.7450593 C72.2152838,36.7450593 72.2849354,36.7193586 72.3650359,36.6679565 C72.4451365,36.6165543 72.5269771,36.5497326 72.6105602,36.4674892 C72.6941434,36.3852458 72.7768546,36.2910099 72.8586965,36.1847789 C72.9405383,36.0785478 73.0145431,35.9688916 73.0807131,35.8558069 C73.1886747,35.6741861 73.2948934,35.4977081 73.3993723,35.3263677 C73.5038513,35.1550272 73.6118112,34.9845461 73.7232554,34.8149191 C73.8346997,34.6452921 73.9504954,34.4756676 74.0706462,34.3060406 C74.190797,34.1364135 74.3187818,33.9625056 74.4546044,33.7843116 C74.5138091,33.705495 74.573013,33.6446701 74.6322177,33.601835 C74.6914225,33.5589999 74.7349547,33.5375826 74.7628158,33.5375826 C74.8498815,33.5375826 74.9073441,33.9642139 74.9352052,34.8174892 C74.9456531,35.088207 74.963066,35.3212265 74.9874444,35.5165546 C75.0118228,35.7118827 75.0527431,35.8729402 75.1102065,35.9997322 C75.1676699,36.1265241 75.2468986,36.2199032 75.3478949,36.2798723 C75.4488913,36.3398415 75.5777467,36.3698256 75.7344651,36.3698256 C75.8354614,36.3698256 75.9381975,36.335558 76.0426765,36.2670219 C76.1471554,36.1984857 76.2551154,36.0991098 76.3665596,35.968891 C76.4780038,35.8386723 76.5946702,35.6793281 76.7165623,35.4908536 C76.8384544,35.3023792 76.9690511,35.0864935 77.1083564,34.8431901 C77.3521406,34.414839 77.5480357,34.0815869 77.6960475,33.8434237 C77.8440594,33.6052606 77.9581138,33.4861808 78.0382144,33.4861808 C78.0660754,33.4861808 78.0904535,33.5016012 78.1113493,33.5324424 C78.132245,33.5632837 78.1548818,33.6078316 78.1792602,33.6660873 C78.2036387,33.724343 78.2314993,33.7954482 78.262843,33.8794051 C78.2941867,33.9633619 78.332495,34.0601677 78.3777692,34.1698256 C78.4160782,34.2623494 78.463093,34.3702923 78.5188151,34.4936574 C78.5745372,34.6170225 78.6380943,34.7438125 78.7094882,34.8740312 C78.7808822,35.0042499 78.8609815,35.13361 78.9497886,35.2621153 C79.0385957,35.3906206 79.1361079,35.5045603 79.2423282,35.6039378 C79.3485485,35.7033152 79.4626029,35.783844 79.584495,35.8455265 C79.7063871,35.9072091 79.8369839,35.9380499 79.9762891,35.9380499 C80.0807681,35.9380499 80.1922106,35.9174894 80.3106201,35.8763677 C80.4290296,35.835246 80.5465666,35.7829879 80.6632348,35.719592 C80.7799029,35.656196 80.8904748,35.5876609 80.9949538,35.5139845 C81.0994327,35.4403081 81.1899798,35.3726297 81.2665977,35.3109471 C81.5173471,35.1019118 81.760257,34.869749 81.9953347,34.6144518 C82.0866348,34.5152987 82.1780657,34.4098143 82.2696278,34.2979979 C82.2637836,34.4749357 82.256806,34.6583794 82.2486948,34.8483303 C82.2312817,35.2801081 82.2025504,35.7007426 82.1625001,36.1102462 C82.1224499,36.5197498 82.0797883,36.8872695 82.0345141,37.2128163 C82.0275488,37.253938 82.019713,37.3147629 82.0110064,37.3952929 C82.0022999,37.4758229 81.9927228,37.566632 81.9822749,37.6677228 C81.971827,37.7688137 81.9613792,37.8758998 81.9509313,37.9889845 C81.9404834,38.1020692 81.9309064,38.2142955 81.9221998,38.3256667 C81.9134932,38.437038 81.906528,38.5424108 81.9013041,38.6417882 C81.8960801,38.7411657 81.8934682,38.8268346 81.8934682,38.8987976 C81.8934682,38.9673337 81.9143637,39.0324421 81.9561553,39.0941247 C81.9979468,39.1558072 82.0484442,39.2106353 82.107649,39.2586107 C82.1668537,39.306586 82.2304108,39.3442803 82.2983221,39.3716948 C82.3662334,39.3991092 82.4280492,39.4128163 82.4837713,39.4128163 C82.5952155,39.4128163 82.6866332,39.3991092 82.7580272,39.3716948 C82.8294211,39.3442803 82.888625,39.3057293 82.9356405,39.2560406 C82.982656,39.2063518 83.021835,39.1463836 83.0531787,39.076134 C83.0845224,39.0058845 83.112383,38.9262124 83.1367615,38.8371153 C83.1924836,38.6486409 83.2238268,38.438752 83.230792,38.2074424 C83.2377573,37.9761329 83.248205,37.7456835 83.2621356,37.5160873 C83.2691008,37.3755881 83.2778073,37.232521 83.2882552,37.0868817 C83.2987031,36.9412423 83.3074095,36.7861816 83.3143748,36.6216948 C83.32134,36.3989522 83.3274346,36.201057 83.3326585,36.0280032 C83.3378824,35.8549494 83.3474595,35.6930351 83.3613901,35.5422555 C83.4519385,35.3640615 83.5538039,35.1773032 83.6669895,34.9819751 C83.780175,34.7866471 83.9029359,34.5887518 84.0352759,34.3882836 C84.1676159,34.1878153 84.3112723,33.9882067 84.4662494,33.7894518 C84.6212265,33.5906969 84.7857784,33.4022253 84.95991,33.2240312 C85.0191147,33.1623487 85.0887663,33.0938135 85.1688668,33.0184237 C85.2489673,32.943034 85.3308079,32.8719287 85.4143911,32.805106 C85.4979743,32.7382832 85.5815562,32.6825984 85.6651393,32.6380499 C85.7487225,32.5935014 85.8253392,32.5712275 85.8949919,32.5712275 C85.9228529,32.5712275 85.9463603,32.5849345 85.9655148,32.612349 C85.9846693,32.6397634 86.0003409,32.674031 86.0125301,32.7151527 C86.0247193,32.7562744 86.0342964,32.8025356 86.0412616,32.8539378 C86.0482269,32.9053399 86.0517095,32.9550279 86.0517095,33.0030032 C86.0517095,33.1092342 86.0360379,33.2291707 86.0046942,33.3628163 C85.9733505,33.4964618 85.9315596,33.6352455 85.8793201,33.7791714 C85.8270806,33.9230974 85.7670061,34.0687345 85.6990948,34.2160873 C85.6311835,34.3634401 85.5606613,34.5039371 85.487526,34.6375826 C85.4143907,34.7712281 85.3403859,34.8954481 85.2655093,35.0102462 C85.1906328,35.1250443 85.1201105,35.2218501 85.0539405,35.3006667 C84.9808053,35.3520689 84.9198601,35.3940466 84.8711033,35.4266013 C84.8223465,35.459156 84.7692371,35.4925669 84.7117737,35.526835 C84.6543103,35.561103 84.5872706,35.5987974 84.5106527,35.6399191 C84.4340348,35.6810408 84.3312987,35.7341555 84.2024414,35.7992649 C84.0561709,35.8746546 83.9438577,35.9603236 83.8654985,36.0562742 C83.7871393,36.1522248 83.7479602,36.2601677 83.7479602,36.380106 C83.7479602,36.4383617 83.7714676,36.4957599 83.8184832,36.5523022 C83.8654987,36.6088446 83.9255732,36.6585326 83.9987085,36.7013677 C84.0718437,36.7442028 84.1536843,36.7784703 84.2442327,36.8041714 C84.3347812,36.8298725 84.4253282,36.8427228 84.5158767,36.8427228 C84.5681161,36.8427228 84.6360264,36.825589 84.7196096,36.7913209 C84.8031927,36.7570529 84.8937398,36.7133617 84.9912535,36.6602462 C85.0887672,36.6071306 85.1888913,36.5471624 85.291629,36.4803396 C85.3943666,36.4135169 85.4910082,36.3484085 85.5815566,36.2850125 C85.672105,36.2216166 85.7539456,36.162505 85.8270809,36.1076761 C85.9002161,36.0528471 85.9541961,36.0117261 85.9890224,35.9843116 C86.2153935,35.8678001 86.4504676,35.7324432 86.6942518,35.5782368 C86.938036,35.4240304 87.1826872,35.2552627 87.4282127,35.0719284 C87.6737382,34.8885942 87.9140362,34.6949824 88.1491139,34.4910873 C88.3841915,34.2871922 88.6070766,34.0747333 88.8177758,33.8537041 C88.9439744,33.7213184 89.0639251,33.5870898 89.1776292,33.451017 L89.1776292,33.451017 C89.1733458,33.4903432 89.1691915,33.5294788 89.1651665,33.5684237 C89.1442707,33.7706054 89.1268578,33.9642172 89.1129273,34.1492649 C89.0989968,34.3343125 89.0920316,34.5005102 89.0920316,34.647863 C89.0920316,35.0385192 89.1355639,35.3649178 89.2226297,35.6270686 C89.3096954,35.8892194 89.4220086,36.0991083 89.5595726,36.2567415 C89.6971365,36.4143747 89.8486287,36.5257443 90.0140537,36.5908536 C90.1794787,36.655963 90.340548,36.6885172 90.4972664,36.6885172 C90.6609501,36.6885172 90.8307259,36.6653866 91.0065988,36.6191247 C91.1824716,36.5728628 91.367919,36.5034709 91.5629464,36.4109471 C91.7579737,36.3184233 91.9660578,36.2019135 92.1872049,36.0614144 C92.408352,35.9209153 92.6460381,35.7564309 92.9002702,35.5679565 C93.0012665,35.4925667 93.1031319,35.4103245 93.2058696,35.3212275 C93.227361,35.3025895 93.2483952,35.2840265 93.2689722,35.2655386 C93.2778076,35.2983775 93.2872463,35.3306476 93.2972882,35.362349 C93.3808714,35.6262132 93.501891,35.8463824 93.6603507,36.022863 C93.8188105,36.1993436 94.0120936,36.3329872 94.240206,36.4237976 C94.4683183,36.514608 94.7286411,36.5600125 95.0211822,36.5600125 C95.2580011,36.5600125 95.5017817,36.5266016 95.7525312,36.4597789 C96.0032806,36.3929561 96.2496731,36.3004337 96.491716,36.1822088 C96.7337589,36.0639839 96.9670917,35.9234869 97.1917215,35.7607135 C97.4163512,35.5979401 97.622694,35.4223188 97.8107561,35.2338443 C97.9814051,35.0590771 98.1172257,34.891166 98.218222,34.730106 C98.3192183,34.569046 98.3697157,34.4251222 98.3697157,34.2983303 C98.3697157,34.1715384 98.3479496,34.0841561 98.3044167,34.0361808 C98.2608838,33.9882054 98.2095157,33.9642181 98.150311,33.9642181 C98.0911063,33.9642181 98.0275492,33.9813519 97.9596379,34.01562 C97.8917266,34.0498881 97.8229456,34.1064296 97.753293,34.1852462 C97.5687135,34.3874279 97.3736891,34.569046 97.1682138,34.730106 C96.9627386,34.891166 96.7520425,35.0282363 96.5361193,35.1413209 C96.3201962,35.2544056 96.1007937,35.3409312 95.8779053,35.4009004 C95.6550169,35.4608695 95.4338731,35.4908536 95.2144673,35.4908536 C95.0716794,35.4908536 94.9489185,35.467723 94.8461808,35.4214611 C94.7434432,35.3751992 94.6589907,35.317801 94.5928207,35.2492649 C94.5266507,35.1807287 94.4778945,35.1070534 94.4465509,35.0282368 C94.4152072,34.9494202 94.3977943,34.875745 94.3943117,34.8072088 C94.3943117,34.8003552 94.4125952,34.7849348 94.4491628,34.7609471 C94.4857305,34.7369594 94.5127204,34.721539 94.5301336,34.7146854 C94.885362,34.5022233 95.2101125,34.2949045 95.5043949,34.0927228 C95.7986773,33.8905411 96.0502936,33.684079 96.2592515,33.4733303 C96.4682094,33.2625816 96.63102,33.0415557 96.7476882,32.8102462 C96.8643563,32.5789366 96.9226895,32.32964 96.9226895,32.062349 C96.9226895,31.9492643 96.8983115,31.8344679 96.8495546,31.7179565 C96.8007978,31.601445 96.7311462,31.4969289 96.6405978,31.4044051 C96.5500494,31.3118812 96.4394775,31.2356359 96.3088788,31.1756667 C96.1782801,31.1156976 96.0293998,31.0857135 95.8622335,31.0857135 C95.6567582,31.0857135 95.466087,31.1139842 95.2902141,31.1705265 C95.1143412,31.2270689 94.953272,31.2998875 94.8070014,31.3889845 C94.6607309,31.4780815 94.5275222,31.5783142 94.4073715,31.6896854 C94.2872207,31.8010567 94.1801314,31.9115696 94.0861003,32.0212275 C93.9398298,32.1959947 93.8092331,32.3818963 93.6943062,32.5789378 C93.5793794,32.7759792 93.4836084,32.9798713 93.4069905,33.19062 C93.3303727,33.4013687 93.2720394,33.612971 93.2319892,33.8254331 C93.1959692,34.0165152 93.1761471,34.204823 93.1725224,34.390361 Z M47.9640116,33.7595365 C47.8553603,33.8862143 47.7395935,34.0161229 47.6167092,34.1492649 C47.4617321,34.3171785 47.3015335,34.4808061 47.1361085,34.6401527 C46.9706835,34.7994993 46.8035197,34.9494199 46.634612,35.0899191 C46.4657044,35.2304182 46.3011525,35.3546382 46.1409515,35.4625826 C45.9807504,35.5705271 45.8275169,35.6553393 45.6812464,35.7170219 C45.5349759,35.7787044 45.4043792,35.8095452 45.2894523,35.8095452 C45.2232823,35.8095452 45.1597252,35.7949815 45.0987792,35.7658536 C45.0378331,35.7367258 44.9847238,35.6930346 44.9394496,35.6347789 C44.8941754,35.5765231 44.8576083,35.5002778 44.8297473,35.4060406 C44.8018862,35.3118033 44.7879559,35.2012904 44.7879559,35.0744985 C44.7879559,34.8174879 44.8010156,34.5467741 44.8271353,34.262349 C44.853255,33.9779239 44.8915634,33.6857928 44.9420616,33.3859471 C44.9925597,33.0861014 45.0535049,32.78112 45.1248988,32.4709938 C45.1962927,32.1608677 45.2772627,31.8533162 45.3678111,31.5483303 C45.3747764,31.5243426 45.3948012,31.4609476 45.4278862,31.3581434 C45.4609712,31.2553391 45.4992796,31.1345459 45.5428125,30.9957602 C45.5863454,30.8569745 45.6333602,30.7096239 45.6838584,30.5537041 C45.7343565,30.3977843 45.7805007,30.2538605 45.8222923,30.1219284 C45.8640839,29.9899963 45.8989097,29.8803401 45.9267707,29.7929565 C45.9546318,29.7055728 45.9685621,29.6618817 45.9685621,29.6618817 C45.9685621,29.4665536 45.9380895,29.3243432 45.8771435,29.2352462 C45.8161974,29.1461492 45.7247797,29.1016013 45.6028876,29.1016013 C45.4426865,29.1016013 45.292065,29.1752766 45.1510184,29.3226294 C45.0099718,29.4699821 44.8785045,29.666164 44.7566124,29.9111808 C44.6347203,30.1561976 44.5224071,30.4397617 44.4196694,30.7618817 C44.3169318,31.0840017 44.2246435,31.4198239 44.1428016,31.7693583 C44.1105649,31.9070366 44.0799493,32.044847 44.0509548,32.1827902 C43.9352363,32.3980719 43.8056525,32.6097925 43.6622009,32.8179565 C43.4898106,33.0681135 43.3087165,33.3054164 43.1189131,33.5298723 C42.9291096,33.7543283 42.7366971,33.9625038 42.5416698,34.1544051 C42.3466424,34.3463063 42.1603244,34.512504 41.9827102,34.6530032 C41.8468876,34.7626611 41.7032312,34.8594669 41.5517367,34.9434237 C41.4002422,35.0273805 41.2461381,35.0984858 41.0894197,35.1567415 C40.9327012,35.2149972 40.7777265,35.2586884 40.6244907,35.2878163 C40.4712549,35.3169441 40.3267279,35.3315079 40.1909052,35.3315079 C40.0167736,35.3315079 39.8757292,35.3126607 39.7677676,35.2749658 C39.659806,35.2372709 39.5744828,35.1884396 39.5117955,35.1284705 C39.4491081,35.0685013 39.4038346,35.0008229 39.3759735,34.9254331 C39.3481125,34.8500433 39.3254757,34.7746546 39.3080625,34.6992649 C39.3080625,34.6958381 39.3176396,34.6864145 39.3367941,34.6709938 C39.3559486,34.6555732 39.3811973,34.6375827 39.412541,34.6170219 C39.4438846,34.596461 39.4769691,34.5759005 39.5117955,34.5553396 C39.5466218,34.5347788 39.577965,34.5159316 39.605826,34.4987976 C40.0063287,34.2452138 40.3467508,34.0070541 40.6271026,33.7843116 C40.9074545,33.561569 41.1346928,33.3473967 41.3088244,33.1417882 C41.4829559,32.9361797 41.6100701,32.7357144 41.6901706,32.5403864 C41.7702711,32.3450583 41.8103208,32.1463064 41.8103208,31.9441247 C41.8103208,31.83104 41.7894253,31.7119602 41.7476337,31.5868817 C41.7058422,31.4618032 41.6440264,31.3478635 41.5621845,31.2450593 C41.4803427,31.142255 41.3776066,31.0574428 41.2539732,30.99062 C41.1303398,30.9237972 40.9866834,30.8903864 40.8229997,30.8903864 C40.6105592,30.8903864 40.4103109,30.9237972 40.2222487,30.99062 C40.0341866,31.0574428 39.8609283,31.1413983 39.7024686,31.2424892 C39.5440089,31.34358 39.4029644,31.4540929 39.279331,31.5740312 C39.1556975,31.6939695 39.0520908,31.8070525 38.9685077,31.9132836 C38.8361677,32.0777704 38.7160187,32.2576751 38.6080571,32.4530032 C38.5000955,32.6483313 38.4069365,32.8505099 38.3285773,33.0595452 C38.2502181,33.2685806 38.189273,33.4818962 38.1457401,33.6994985 C38.1035797,33.91024 38.0818352,34.1201749 38.080506,34.3293091 C38.0569767,34.3411968 38.0334475,34.3548581 38.0099181,34.3702929 C37.9733505,34.3942806 37.9350421,34.4225513 37.8949919,34.455106 C37.8549416,34.4876607 37.8070561,34.5227849 37.751334,34.5604798 C37.6538203,34.6255892 37.5284475,34.7009778 37.3752117,34.786648 C37.2219759,34.8723183 37.0643892,34.9579872 36.9024468,35.0436574 C36.7405045,35.1293276 36.5855297,35.2107131 36.4375178,35.2878163 C36.289506,35.3649195 36.1737102,35.4274578 36.0901271,35.4754331 C36.0866444,35.3794825 36.0683609,35.2826766 36.0352759,35.1850125 C36.0021909,35.0873485 35.9612706,34.992256 35.9125138,34.8997322 C35.8637569,34.8072083 35.8106476,34.7189693 35.7531842,34.6350125 C35.6957207,34.5510557 35.6426114,34.4748104 35.5938546,34.4062742 C35.5207193,34.30347 35.4397493,34.1938137 35.3509422,34.0773022 C35.2621351,33.9607908 35.1881303,33.8408543 35.1289256,33.7174892 C35.0836514,33.6283921 35.0496962,33.5290162 35.0270591,33.4193583 C35.004422,33.3097005 34.9913623,33.217178 34.9878797,33.1417882 C34.9983276,33.1315078 35.0061634,33.1246543 35.0113873,33.1212275 C35.0166113,33.1178007 35.0218352,33.1135172 35.0270591,33.108377 C35.0322831,33.1032368 35.0409895,33.09724 35.0531787,33.0903864 C35.0653679,33.0835327 35.0819102,33.0715391 35.102806,33.0544051 C35.4023123,32.8350893 35.6147496,32.6440476 35.7401244,32.4812742 C35.8654991,32.3185008 35.9281855,32.1685802 35.9281855,32.0315079 C35.9281855,31.8121921 35.8750762,31.6511345 35.7688559,31.5483303 C35.6626357,31.445526 35.5015664,31.3941247 35.2856432,31.3941247 C35.1846469,31.3941247 35.0705924,31.431819 34.9434764,31.5072088 C34.8163603,31.5825986 34.6918581,31.6802611 34.569966,31.8001994 C34.4480739,31.9201377 34.337502,32.0537813 34.238247,32.201134 C34.138992,32.3484868 34.0649872,32.4958373 34.0162304,32.6431901 C33.9744388,32.7734088 33.9413543,32.9001988 33.9169759,33.0235639 C33.8925974,33.146929 33.8804084,33.2685789 33.8804084,33.3885172 C33.8804084,33.5016019 33.8917268,33.6095447 33.9143639,33.712349 C33.937001,33.8151532 33.9709561,33.9188126 34.0162304,34.0233303 C34.0615046,34.1278479 34.1180965,34.2366475 34.1860078,34.3497322 C34.2539191,34.4628168 34.3331478,34.5861801 34.4236962,34.7198256 C34.5873799,34.963129 34.717106,35.1575975 34.8128783,35.3032368 C34.9086507,35.4488762 34.9565362,35.5696694 34.9565362,35.66562 C34.9565362,35.7649974 34.937382,35.8446695 34.899073,35.9046387 C34.8607641,35.9646078 34.8085254,36.0185793 34.7423554,36.0665546 C34.6657375,36.1248103 34.5612601,36.1744983 34.4289201,36.21562 C34.2965801,36.2567417 34.1520531,36.294436 33.9953347,36.3287041 C33.793342,36.3698258 33.6226957,36.4237972 33.4833904,36.49062 C33.3440851,36.5574428 33.2326426,36.6319747 33.1490594,36.7142181 C33.0654763,36.7964615 33.0054018,36.8847005 32.9688342,36.9789378 C32.9322665,37.073175 32.913983,37.1682675 32.913983,37.2642181 C32.913983,37.3259007 32.9340078,37.3850122 32.9740581,37.4415546 C33.0141083,37.4980969 33.0637351,37.5486416 33.1229398,37.5931901 C33.1821446,37.6377386 33.2439603,37.6737196 33.308389,37.701134 C33.3728177,37.7285485 33.4294096,37.7422555 33.4781665,37.7422555 C33.5547844,37.7422555 33.6287892,37.735402 33.7001831,37.7216948 C33.7715771,37.7079875 33.8473232,37.6865703 33.9274237,37.6574424 C34.0075242,37.6283146 34.0937181,37.5914769 34.1860078,37.5469284 C34.2782975,37.5023799 34.3836456,37.4509786 34.502055,37.3927228 C34.6935998,37.2967722 34.9103903,37.1836892 35.1524332,37.0534705 C35.3944761,36.9232518 35.6426099,36.7810413 35.896842,36.626835 C36.1057999,36.5034699 36.3156253,36.3758232 36.5263245,36.243891 C36.7370237,36.1119589 36.9407546,35.9817421 37.1375233,35.8532368 C37.334292,35.7247315 37.5188687,35.5987982 37.6912589,35.4754331 C37.8636492,35.352068 38.0134001,35.2347016 38.1405161,35.1233303 C38.1567643,35.1090947 38.1725714,35.094985 38.1879376,35.0810014 L38.1879376,35.0810014 C38.2593609,35.3203265 38.3741506,35.5340446 38.5323102,35.7221621 C38.69077,35.9106365 38.8953715,36.0622705 39.146121,36.1770686 C39.3968705,36.2918667 39.7015961,36.3492649 40.0603072,36.3492649 C40.3946398,36.3492649 40.7176491,36.2978635 41.0293446,36.1950593 C41.3410401,36.092255 41.6370593,35.9560414 41.9174112,35.7864144 C42.197763,35.6167874 42.4598271,35.4240323 42.7036113,35.2081434 C42.9473955,34.9922544 43.166798,34.7712286 43.3618254,34.5450593 C43.4943135,34.3929674 43.6207507,34.233649 43.7411389,34.0671018 L43.7411389,34.0671018 C43.715606,34.2734014 43.695388,34.462704 43.6804846,34.6350125 C43.6595888,34.8766025 43.6491411,35.0590773 43.6491411,35.1824424 C43.6491411,35.4017582 43.6674246,35.6150738 43.7039922,35.8223957 C43.7405599,36.0297176 43.8102114,36.2139058 43.9129491,36.3749658 C44.0156867,36.5360258 44.1576018,36.6653859 44.3386987,36.7630499 C44.5197955,36.860714 44.7531283,36.9095452 45.0387041,36.9095452 C45.2337315,36.9095452 45.4365917,36.8649974 45.6472909,36.7759004 C45.8579901,36.6868034 46.0712981,36.5694369 46.2872213,36.4237976 C46.5031444,36.2781582 46.7173231,36.1102471 46.9297636,35.9200593 C47.1422041,35.7298714 47.3433231,35.5328329 47.5331265,35.3289378 C47.6772747,35.1740875 47.8138886,35.019239 47.9429707,34.8643896 C47.9576656,35.1214273 47.9882162,35.3576618 48.0346229,35.5730966 C48.1025342,35.888363 48.2078823,36.1539367 48.3506701,36.3698256 C48.493458,36.5857145 48.6745522,36.7493422 48.8939579,36.8607135 C49.1133637,36.9720847 49.3762985,37.0277695 49.6827701,37.0277695 C49.8777974,37.0277695 50.0754338,36.9926453 50.2756851,36.9223957 C50.4759364,36.8521461 50.6709609,36.7579103 50.8607643,36.6396854 C51.0505677,36.5214605 51.2316618,36.3843903 51.4040521,36.2284705 C51.5764424,36.0725507 51.7322878,35.9106364 51.871593,35.7427228 C51.9168672,35.6878939 51.9682353,35.618502 52.0256987,35.5345452 C52.0831621,35.4505884 52.1371421,35.3649195 52.1876403,35.2775359 C52.2381384,35.1901523 52.2808,35.1070534 52.3156263,35.0282368 C52.3504527,34.9494202 52.3678656,34.8860252 52.3678656,34.8380499 C52.3678656,34.7420993 52.3574178,34.6752775 52.336522,34.6375826 C52.3156262,34.5998877 52.2564224,34.5810406 52.1589087,34.5810406 C52.099704,34.5810406 52.0274404,34.6178782 51.942116,34.6915546 C51.8567915,34.765231 51.7740802,34.8449031 51.6939797,34.9305733 C51.5860181,35.0470848 51.4649985,35.1653079 51.3309172,35.2852462 C51.1968359,35.4051845 51.0540501,35.5122706 50.9025557,35.6065079 C50.7510612,35.7007451 50.5926038,35.7778471 50.4271788,35.8378163 C50.2617538,35.8977854 50.0902368,35.9277695 49.9126226,35.9277695 C49.6270468,35.9277695 49.4233159,35.7872725 49.3014238,35.5062742 C49.1795317,35.2252759 49.1185866,34.8209186 49.1185866,34.2931901 C49.1185866,34.1321301 49.1229398,33.9616489 49.1316464,33.7817415 C49.1403529,33.6018341 49.1542833,33.4193592 49.1734377,33.2343116 C49.1925922,33.0492639 49.2160996,32.8642191 49.2439607,32.6791714 C49.2718217,32.4941238 49.3049062,32.3176458 49.3432152,32.1497322 C49.3954546,31.9235628 49.4520466,31.677693 49.5129926,31.4121153 C49.5739387,31.1465377 49.6331425,30.8843908 49.6906059,30.6256667 C49.7480694,30.3669427 49.7976961,30.1227863 49.8394877,29.8931901 C49.8812793,29.6635939 49.9091399,29.4734089 49.9230704,29.3226294 C49.898692,29.2712272 49.8690901,29.2189692 49.8342638,29.1658536 C49.7994375,29.1127381 49.7593878,29.0656202 49.7141136,29.0244985 C49.6688394,28.9833768 49.6174713,28.9491092 49.5600079,28.9216948 C49.5025445,28.8942803 49.4389874,28.8805733 49.3693348,28.8805733 C49.2892343,28.8805733 49.2073936,28.9345447 49.1238105,29.0424892 C49.0402273,29.1504336 48.9575161,29.2977842 48.8756742,29.4845452 C48.7938324,29.6713063 48.7137331,29.8914754 48.6353738,30.1450593 C48.5570146,30.3986431 48.4830098,30.6702136 48.4133572,30.9597789 C48.3437046,31.2493442 48.2792769,31.5508988 48.2200721,31.8644518 C48.1608674,32.1780047 48.11037,32.4889829 48.0685784,32.7973957 C48.0267868,33.1058085 47.9937023,33.404793 47.9693239,33.6943583 C47.9674837,33.7162162 47.9657129,33.7379423 47.9640116,33.7595365 L47.9640116,33.7595365 Z M55.653712,35.6553396 C55.653712,35.7307294 55.6362991,35.8489525 55.6014728,36.0100125 C55.5910249,36.0579878 55.5544578,36.1179561 55.4917704,36.1899191 C55.4290831,36.261882 55.3367947,36.3458376 55.2149026,36.4417882 C55.1034584,36.5308852 55.001593,36.597707 54.9093032,36.6422555 C54.8170135,36.686804 54.7395261,36.7090779 54.6768387,36.7090779 C54.5444987,36.7090779 54.4382801,36.6945142 54.3581795,36.6653864 C54.278079,36.6362585 54.2162632,36.5917106 54.1727303,36.5317415 C54.1291974,36.4717724 54.1004662,36.3938136 54.0865356,36.297863 C54.0726051,36.2019124 54.0656399,36.087116 54.0656399,35.9534705 C54.0656399,35.8575198 54.0665106,35.776991 54.0682519,35.7118817 C54.0699932,35.6467723 54.0760877,35.5902308 54.0865356,35.5422555 C54.1178793,35.3058057 54.422605,35.1875826 55.0007218,35.1875826 C55.1400271,35.1875826 55.250599,35.2047164 55.3324408,35.2389845 C55.4142827,35.2732526 55.4882875,35.3280807 55.5544575,35.4034705 C55.6206275,35.4685798 55.653712,35.5525354 55.653712,35.6553396 Z M68.645604,29.2969284 C68.645604,29.4100131 68.6281911,29.5170992 68.5933648,29.6181901 C68.5585385,29.7192809 68.5080411,29.8143735 68.4418711,29.9034705 C68.3095311,30.0850913 68.1058002,30.1759004 67.8306723,30.1759004 C67.7366413,30.1759004 67.639129,30.1681902 67.5381327,30.1527695 C67.4371364,30.1373489 67.3457187,30.1133616 67.2638769,30.0808069 C67.182035,30.0482522 67.1149954,30.0079878 67.0627559,29.9600125 C67.0105164,29.9120372 66.9843971,29.8572091 66.9843971,29.7955265 C66.9843971,29.6892955 67.0131284,29.5770692 67.0705918,29.4588443 C67.1280552,29.3406194 67.2003187,29.2309632 67.2873845,29.1298723 C67.3744503,29.0287815 67.4710919,28.9448259 67.5773121,28.8780032 C67.6835324,28.8111804 67.7853978,28.7777695 67.8829115,28.7777695 C68.0048036,28.7777695 68.1127636,28.7854797 68.2067946,28.8009004 C68.3008257,28.816321 68.380925,28.8428784 68.447095,28.8805733 C68.513265,28.9182682 68.5628918,28.9713829 68.5959768,29.0399191 C68.6290618,29.1084552 68.645604,29.1941242 68.645604,29.2969284 Z M101.284664,35.6553396 C101.284664,35.7307294 101.267251,35.8489525 101.232425,36.0100125 C101.221977,36.0579878 101.18541,36.1179561 101.122722,36.1899191 C101.060035,36.261882 100.967746,36.3458376 100.845854,36.4417882 C100.73441,36.5308852 100.632545,36.597707 100.540255,36.6422555 C100.447965,36.686804 100.370478,36.7090779 100.30779,36.7090779 C100.17545,36.7090779 100.069232,36.6945142 99.9891313,36.6653864 C99.9090307,36.6362585 99.847215,36.5917106 99.8036821,36.5317415 C99.7601492,36.4717724 99.7314179,36.3938136 99.7174874,36.297863 C99.7035568,36.2019124 99.6965917,36.087116 99.6965917,35.9534705 C99.6965917,35.8575198 99.6974623,35.776991 99.6992036,35.7118817 C99.700945,35.6467723 99.7070395,35.5902308 99.7174874,35.5422555 C99.748831,35.3058057 100.053557,35.1875826 100.631674,35.1875826 C100.770979,35.1875826 100.881551,35.2047164 100.963393,35.2389845 C101.045234,35.2732526 101.119239,35.3280807 101.185409,35.4034705 C101.251579,35.4685798 101.284664,35.5525354 101.284664,35.6553396 L101.284664,35.6553396 Z M95.8361139,32.3296387 C95.8361139,32.2748098 95.8256662,32.2294052 95.8047704,32.1934237 C95.7838746,32.1574423 95.7603672,32.1291715 95.7342474,32.1086107 C95.7081277,32.0880498 95.6820084,32.0734861 95.6558886,32.0649191 C95.6297689,32.056352 95.6114853,32.0520686 95.6010375,32.0520686 C95.444319,32.0520686 95.299792,32.1111802 95.167452,32.2294051 C95.035112,32.3476299 94.9167043,32.4992639 94.8122253,32.6843116 C94.7077464,32.8693592 94.6163287,33.0732513 94.5379695,33.2959938 C94.4596103,33.5187364 94.3943119,33.7346221 94.3420724,33.9436574 C94.5510303,33.7860242 94.7460548,33.640387 94.9271516,33.5067415 C95.1082485,33.373096 95.2658352,33.2428792 95.3999165,33.1160873 C95.5339978,32.9892954 95.6402165,32.8625054 95.7185757,32.7357135 C95.7969349,32.6089216 95.8361139,32.4735646 95.8361139,32.3296387 L95.8361139,32.3296387 Z" id="buy.-sell.-simple." sketch:type="MSShapeGroup"></path>
        </g>
    </g>
</svg>