<?xml version="1.0" encoding="UTF-8" standalone="no"?>
<svg
   xmlns:sketch="http://www.bohemiancoding.com/sketch/ns"
   xmlns:dc="http://purl.org/dc/elements/1.1/"
   xmlns:cc="http://creativecommons.org/ns#"
   xmlns:rdf="http://www.w3.org/1999/02/22-rdf-syntax-ns#"
   xmlns:svg="http://www.w3.org/2000/svg"
   xmlns="http://www.w3.org/2000/svg"
   xmlns:sodipodi="http://sodipodi.sourceforge.net/DTD/sodipodi-0.dtd"
   xmlns:inkscape="http://www.inkscape.org/namespaces/inkscape"
   width="107.573"
   height="28.726"
   viewBox="0 0 107.573 28.726"
   version="1.1"
   id="svg2"
   inkscape:version="0.91 r13725"
   sodipodi:docname="offerup-logo107-573x28.726.svg">
  <metadata
     id="metadata28">
    <rdf:RDF>
      <cc:Work
         rdf:about="">
        <dc:format>image/svg+xml</dc:format>
        <dc:type
           rdf:resource="http://purl.org/dc/dcmitype/StillImage" />
        <dc:title>offerup_logo</dc:title>
      </cc:Work>
    </rdf:RDF>
  </metadata>
  <sodipodi:namedview
     pagecolor="#ffffff"
     bordercolor="#666666"
     borderopacity="1"
     objecttolerance="10"
     gridtolerance="10"
     guidetolerance="10"
     inkscape:pageopacity="0"
     inkscape:pageshadow="2"
     inkscape:window-width="1904"
     inkscape:window-height="1172"
     id="namedview26"
     showgrid="false"
     units="mm"
     inkscape:zoom="4.4918033"
     inkscape:cx="69.905109"
     inkscape:cy="11.094891"
     inkscape:window-x="0"
     inkscape:window-y="23"
     inkscape:window-maximized="0"
     inkscape:current-layer="svg2" />
  <!-- Generator: Sketch 3.2.2 (9983) - http://www.bohemiancoding.com/sketch -->
  <title
     id="title4">offerup_logo</title>
  <desc
     id="desc6">Created with Sketch.</desc>
  <defs
     id="defs8" />
  <g
     id="g3368"
     inkscape:export-xdpi="90"
     inkscape:export-ydpi="90">
    <g
       transform="translate(-6.0109489,5.7883212)"
       id="g3356">
      <g
         id="Page-1"
         sketch:type="MSPage"
         transform="matrix(0.88465707,0,0,0.7330043,6.2335766,-6.2713538)"
         style="fill:none;fill-rule:evenodd;stroke:none;stroke-width:1">
        <g
           id="offerup_logo"
           sketch:type="MSLayerGroup"
           style="fill:#ffffff">
          <path
             d="M 0,12.82931 C 0,8.9394496 1.1254777,5.911038 3.3764667,3.7439848 5.6274558,1.5769314 8.761911,0.49342105 12.779927,0.49342105 c 4.119309,0 7.293156,1.06454895 9.521636,3.19367885 2.228479,2.1291299 3.342702,5.1114922 3.342702,8.9471771 0,2.784663 -0.48677,5.068161 -1.460322,6.850562 -0.973553,1.782402 -2.3804,3.169295 -4.220584,4.160722 -1.840183,0.991427 -4.133344,1.487133 -6.87955,1.487133 -2.791227,0 -5.1012698,-0.427987 -6.9301984,-1.283973 C 4.324682,22.992735 2.8418652,21.638347 1.7051157,19.785517 0.56836621,17.932686 0,15.613974 0,12.82931 Z m 7.6476971,0.03251 c 0,2.405429 0.4642595,4.133628 1.3927925,5.184649 0.928533,1.051021 2.1918814,1.576523 3.7900844,1.576523 1.643222,0 2.915011,-0.514667 3.815407,-1.544017 0.900395,-1.029351 1.350586,-2.876736 1.350586,-5.542211 0,-2.242901 -0.469886,-3.8817101 -1.409674,-4.916478 -0.939788,-1.034768 -2.214392,-1.5521442 -3.823849,-1.5521442 -1.541927,0 -2.7799528,0.5255025 -3.7141132,1.5765234 C 8.1147703,8.695682 7.6476971,10.434716 7.6476971,12.861816 Z"
             id="Path"
             sketch:type="MSShapeGroup"
             inkscape:connector-curvature="0" />
          <path
             d="m 46.204958,7.3651127 3.275173,0 0,4.8433403 -3.275173,0 0,12.417153 -6.887992,0 0,-12.417153 -2.566115,0 0,-4.8433403 2.566115,0 0,-0.7801353 c 0,-0.7042923 0.07878,-1.4790022 0.236353,-2.324153 0.157569,-0.8451508 0.453007,-1.5358887 0.886322,-2.0722344 0.433315,-0.5363457 1.041073,-0.9697498 1.823292,-1.30022546 0.782219,-0.33047563 1.927392,-0.49571096 3.435555,-0.49571096 1.204279,0 2.954397,0.1354388 5.250406,0.40632046 L 50.189189,4.7971674 C 49.367578,4.6671442 48.703546,4.6021336 48.197073,4.6021336 c -0.619022,0 -1.063585,0.1002247 -1.333704,0.3006771 -0.270119,0.2004524 -0.46145,0.5173792 -0.573999,0.9507899 -0.05627,0.2383759 -0.08441,0.7422082 -0.08441,1.5115121 l 0,0 z"
             id="path13"
             sketch:type="MSShapeGroup"
             inkscape:connector-curvature="0" />
          <path
             d="m 68.732744,17.636894 -13.775984,0 c 0.123804,1.061856 0.422056,1.852819 0.894763,2.372911 0.664042,0.747634 1.53066,1.121445 2.59988,1.121445 0.675296,0 1.316819,-0.162527 1.924586,-0.487585 0.371413,-0.20587 0.770957,-0.568846 1.198645,-1.088938 l 6.769816,0.601354 c -1.035455,1.733642 -2.284735,2.976971 -3.747878,3.730022 -1.463143,0.753051 -3.562159,1.129571 -6.29711,1.129571 -2.374794,0 -4.243087,-0.322345 -5.604935,-0.967043 -1.361848,-0.644699 -2.49014,-1.668616 -3.384908,-3.071783 -0.894768,-1.403167 -1.342145,-3.052811 -1.342145,-4.948983 0,-2.697981 0.897568,-4.881255 2.692732,-6.5498859 1.795164,-1.668631 4.274028,-2.502934 7.436668,-2.502934 2.566127,0 4.591987,0.3738111 6.07764,1.1214444 1.485653,0.7476334 2.616757,1.8311438 3.393349,3.2505635 0.776591,1.41942 1.164881,3.266805 1.164881,5.542211 l 0,0.74763 z m -6.989286,-3.1693 c -0.13506,-1.278561 -0.492399,-2.194127 -1.072028,-2.746726 -0.57963,-0.552599 -1.342141,-0.828894 -2.287557,-0.828894 -1.091729,0 -1.963974,0.417152 -2.616761,1.251467 -0.416433,0.520093 -0.680921,1.294803 -0.79347,2.324153 l 6.769816,0 z"
             id="path15"
             sketch:type="MSShapeGroup"
             inkscape:connector-curvature="0" />
          <path
             d="m 69.364143,7.3651127 6.432169,0 0,2.8279903 c 0.619022,-1.224385 1.257731,-2.0668143 1.916145,-2.5273131 0.658414,-0.4604989 1.471572,-0.6907448 2.439497,-0.6907448 1.012945,0 2.121541,0.3033829 3.32582,0.9101578 L 81.3506,12.59852 c -0.810356,-0.325058 -1.451879,-0.487584 -1.924586,-0.487584 -0.900396,0 -1.598192,0.357558 -2.093409,1.072686 -0.709062,1.00768 -1.063588,2.892988 -1.063588,5.655981 l 0,5.786003 -6.904874,0 0,-17.2604933 z"
             id="path17"
             sketch:type="MSShapeGroup"
             inkscape:connector-curvature="0" />
          <path
             d="m 33.61749,7.3651127 3.275173,0 0,4.8433403 -3.275173,0 0,12.417153 -6.887992,0 0,-12.417153 -2.566115,0 0,-4.8433403 2.566115,0 0,-0.7801353 c 0,-0.7042923 0.07878,-1.4790022 0.236353,-2.324153 0.157569,-0.8451508 0.453007,-1.5358887 0.886322,-2.0722344 0.433316,-0.5363457 1.041073,-0.9697498 1.823292,-1.30022546 0.782219,-0.33047563 1.927392,-0.49571096 3.435555,-0.49571096 1.204279,0 2.954397,0.1354388 5.250406,0.40632046 L 37.601721,4.7971674 C 36.78011,4.6671442 36.116078,4.6021336 35.609605,4.6021336 c -0.619022,0 -1.063585,0.1002247 -1.333704,0.3006771 -0.270119,0.2004524 -0.46145,0.5173792 -0.573999,0.9507899 -0.05627,0.2383759 -0.08441,0.7422082 -0.08441,1.5115121 l 0,0 z"
             id="path19"
             sketch:type="MSShapeGroup"
             inkscape:connector-curvature="0" />
          <path
             d="m 82.642584,1.0293784 4.997171,0 0,12.9047376 c 0,2.047866 0.0619,3.375166 0.185705,3.981941 0.213844,0.975174 0.723123,1.75801 1.527852,2.348532 0.804728,0.590522 1.904883,0.885779 3.300496,0.885779 1.418123,0 2.487327,-0.279004 3.207643,-0.837021 0.720317,-0.558016 1.153626,-1.243336 1.29994,-2.055981 0.146314,-0.812645 0.21947,-2.161615 0.21947,-4.046952 l 0,-13.1810356 4.997169,0 0,12.5146706 c 0,2.86051 -0.13505,4.881257 -0.40517,6.062301 -0.27012,1.181044 -0.76815,2.177874 -1.49409,2.990518 -0.725945,0.812645 -1.696669,1.460043 -2.912203,1.942212 -1.215534,0.48217 -2.802458,0.723251 -4.760818,0.723251 -2.363539,0 -4.155862,-0.262752 -5.377023,-0.788262 -1.221162,-0.52551 -2.186259,-1.208122 -2.895321,-2.047855 -0.709061,-0.839733 -1.176134,-1.720085 -1.401233,-2.641083 -0.326394,-1.365244 -0.489588,-3.380573 -0.489588,-6.046048 l 0,-12.7097046 z"
             id="path21"
             sketch:type="MSShapeGroup"
             inkscape:connector-curvature="0" />
          <path
             d="m 104.06844,7.5856835 4.43332,0 0,2.5531715 c 0.57532,-0.8728836 1.35369,-1.5820908 2.33511,-2.1276429 0.98143,-0.5455522 2.07001,-0.8183242 3.26577,-0.8183242 2.08695,0 3.858,0.7910388 5.31322,2.37314 1.45522,1.5821011 2.18282,3.7860991 2.18282,6.6120591 0,2.902337 -0.73324,5.158162 -2.19974,6.767541 -1.4665,1.609378 -3.2432,2.414056 -5.33014,2.414056 -0.99271,0 -1.89234,-0.19094 -2.69891,-0.572827 -0.80658,-0.381887 -1.65544,-1.036539 -2.54663,-1.963978 l 0,8.756068 -4.75482,0 0,-23.9932635 z m 4.70406,8.3960055 c 0,1.953077 0.40046,3.396041 1.2014,4.328935 0.80093,0.932894 1.77671,1.399334 2.92735,1.399334 1.10551,0 2.02488,-0.428252 2.75813,-1.284769 0.73325,-0.856517 1.09987,-2.261292 1.09987,-4.214369 0,-1.822144 -0.3779,-3.175093 -1.13371,-4.058888 -0.75581,-0.883794 -1.6921,-1.325685 -2.8089,-1.325685 -1.16192,0 -2.12641,0.433708 -2.8935,1.301136 -0.7671,0.867427 -1.15064,2.152184 -1.15064,3.854306 z"
             id="path23"
             sketch:type="MSShapeGroup"
             inkscape:connector-curvature="0" />
          <path
             d="m 12.864127,32.648695 0.117985,-0.391019 c -0.08184,0.02399 -0.166295,0.07196 -0.253361,0.143925 -0.167166,0.133646 -0.345648,0.269003 -0.535451,0.406075 -0.189804,0.137072 -0.383087,0.273286 -0.579856,0.408645 -0.196768,0.135359 -0.393534,0.269002 -0.590303,0.400934 -0.196768,0.131933 -0.383957,0.261293 -0.561571,0.388085 0.04179,-0.06168 0.07662,-0.129361 0.104478,-0.203038 0.02786,-0.07368 0.0505,-0.144781 0.06791,-0.213317 0.01741,-0.06854 0.0296,-0.131932 0.03657,-0.190187 0.007,-0.05826 0.01045,-0.104517 0.01045,-0.138785 0,-0.195329 -0.03831,-0.394081 -0.114926,-0.596262 -0.07662,-0.202182 -0.182836,-0.385513 -0.318659,-0.55 C 10.11157,31.949264 9.9505009,31.815621 9.7641802,31.712816 9.5778594,31.610012 9.3749991,31.558611 9.1555933,31.558611 c -0.19851,0 -0.3926638,0.03427 -0.5824672,0.102803 -0.1898034,0.06854 -0.3891811,0.176479 -0.598139,0.323832 -0.1184094,0.08224 -0.2455236,0.183333 -0.3813462,0.303271 -0.1358226,0.119939 -0.2699019,0.248442 -0.4022419,0.385514 -0.13234,0.137073 -0.2568423,0.278426 -0.3735104,0.424066 -0.1166682,0.145639 -0.2167923,0.286993 -0.3003755,0.424065 0.020896,-0.167914 0.057463,-0.364952 0.1097024,-0.591121 0.052239,-0.22617 0.1105727,-0.47204 0.1750013,-0.737617 0.064429,-0.265578 0.1314684,-0.543145 0.201121,-0.832711 0.069653,-0.289565 0.1340803,-0.583409 0.1932851,-0.881542 0.00348,-0.0069 0.011318,-0.04198 0.023508,-0.105373 0.012189,-0.0634 0.027861,-0.141355 0.047015,-0.233879 0.019154,-0.09252 0.039179,-0.1919 0.060075,-0.298131 0.020896,-0.106231 0.040921,-0.20475 0.060075,-0.295561 0.019154,-0.09081 0.034826,-0.167912 0.047015,-0.231308 0.012189,-0.0634 0.018284,-0.09681 0.018284,-0.100234 0,-0.09938 -0.010448,-0.188473 -0.031344,-0.267289 -0.020896,-0.07882 -0.056592,-0.144782 -0.1070904,-0.197897 -0.050498,-0.05312 -0.1184084,-0.09424 -0.2037329,-0.123365 -0.085324,-0.02913 -0.1924138,-0.04369 -0.3212712,-0.04369 -0.059205,0 -0.1227618,0.01713 -0.1906731,0.0514 -0.067911,0.03427 -0.1332097,0.08224 -0.195897,0.143926 -0.062687,0.06168 -0.1192793,0.135357 -0.1697775,0.221028 -0.050498,0.08567 -0.086195,0.178192 -0.1070904,0.27757 -0.010448,0.0514 -0.027861,0.143924 -0.052239,0.27757 -0.024378,0.133645 -0.051368,0.289563 -0.080971,0.467757 -0.029602,0.178194 -0.060946,0.366665 -0.094031,0.56542 -0.033085,0.198755 -0.065299,0.38894 -0.096643,0.570561 -0.031344,0.181621 -0.058334,0.343535 -0.080971,0.485748 -0.022637,0.142212 -0.039179,0.244158 -0.049627,0.305841 -0.045274,0.267291 -0.090548,0.544001 -0.135822,0.83014 -0.045274,0.286139 -0.086194,0.570559 -0.1227621,0.853271 -0.036568,0.282712 -0.06704,0.556852 -0.091419,0.82243 -0.024379,0.265578 -0.036567,0.511448 -0.036567,0.737617 0,0.462619 0.047885,0.798441 0.1436579,1.007476 0.095772,0.209036 0.2446526,0.313552 0.4466452,0.313552 0.1567184,0 0.2907977,-0.03941 0.4022419,-0.118224 0.1114443,-0.07882 0.1706481,-0.190187 0.1776134,-0.334113 l -0.020896,-0.426635 c 0.00697,-0.147353 0.052239,-0.323831 0.1358219,-0.529439 0.083583,-0.205609 0.2037322,-0.421495 0.3604506,-0.647664 0.076618,-0.113085 0.1636824,-0.239018 0.2611961,-0.377804 0.097514,-0.138785 0.201991,-0.279282 0.3134352,-0.421495 0.1114442,-0.142212 0.2307226,-0.281853 0.3578386,-0.418925 0.1271161,-0.137073 0.2568422,-0.258722 0.3891822,-0.364953 0.13234,-0.106232 0.2681606,-0.191901 0.4074658,-0.25701 0.1393053,-0.06511 0.2786085,-0.09766 0.4179137,-0.09766 0.055722,0 0.1105728,0.01713 0.1645535,0.0514 0.053981,0.03427 0.1018663,0.08653 0.1436579,0.156776 0.041792,0.07025 0.075747,0.160202 0.1018664,0.26986 0.02612,0.109658 0.039179,0.241588 0.039179,0.395794 0,0.09252 -0.01306,0.18933 -0.039179,0.290421 -0.02612,0.101091 -0.060946,0.201323 -0.1044784,0.300701 -0.043533,0.09938 -0.092289,0.193613 -0.1462698,0.28271 -0.053981,0.0891 -0.1088314,0.169626 -0.1645535,0.241589 -0.1009963,0.130219 -0.1976379,0.242445 -0.2899276,0.336682 -0.09229,0.09424 -0.1889313,0.180763 -0.2899277,0.25958 -0.1009963,0.07882 -0.2115682,0.156775 -0.3317189,0.233878 -0.1201508,0.0771 -0.2603247,0.165342 -0.4205257,0.26472 -0.034826,0.02056 -0.090548,0.05397 -0.1671655,0.100233 -0.076618,0.04626 -0.1636824,0.10109 -0.2611961,0.164486 -0.097514,0.0634 -0.1976378,0.131931 -0.3003754,0.205608 -0.1027377,0.07368 -0.1967673,0.149922 -0.2820918,0.228738 -0.085324,0.07882 -0.154976,0.157632 -0.2089568,0.236449 -0.053981,0.07882 -0.080971,0.152492 -0.080971,0.221028 0,0.0891 0.020895,0.162772 0.062687,0.221028 0.041791,0.05826 0.094901,0.104517 0.1593296,0.138785 0.064429,0.03427 0.1349509,0.05911 0.2115688,0.07453 0.076618,0.01542 0.149752,0.02313 0.2194047,0.02313 0.2820931,0 0.5223911,-0.07368 0.7209011,-0.221028 0.1044789,-0.07539 0.1958966,-0.145638 0.2742559,-0.210747 0.078359,-0.06511 0.149752,-0.126791 0.2141807,-0.185047 0.064429,-0.05826 0.1279858,-0.115654 0.1906731,-0.172196 0.062687,-0.05654 0.1305977,-0.112227 0.203733,-0.167056 0.052239,-0.03769 0.1445278,-0.102804 0.2768678,-0.195327 0.13234,-0.09252 0.2864441,-0.197897 0.462317,-0.316122 0.1758729,-0.118225 0.3621909,-0.243301 0.5589596,-0.375234 0.1967683,-0.131932 0.3822163,-0.256152 0.5563473,-0.372663 0.174132,-0.116512 0.328236,-0.219314 0.462317,-0.308411 0.134082,-0.0891 0.225499,-0.150779 0.274256,-0.185047 0.135823,-0.0891 0.281221,-0.18676 0.436198,-0.292991 0.154977,-0.106231 0.310822,-0.216744 0.467541,-0.331542 0.156718,-0.114798 0.265352,-0.244158 0.409882,-0.362383 l 0.03465,-0.114848 c -0.0083,0.03657 -0.01633,0.07314 -0.02401,0.109708 -0.03308,0.157633 -0.06094,0.309267 -0.08358,0.454906 -0.02264,0.14564 -0.04005,0.276713 -0.05224,0.393225 -0.01219,0.116511 -0.02089,0.214174 -0.02612,0.29299 -0.0052,0.07882 -0.0078,0.126792 -0.0078,0.143926 0,0.174767 0.01132,0.354672 0.03396,0.539719 0.02264,0.185048 0.07575,0.353816 0.15933,0.506309 0.08358,0.152493 0.208085,0.277569 0.37351,0.375233 0.165425,0.09766 0.390922,0.146496 0.676498,0.146496 0.219406,-0.01028 0.424878,-0.05055 0.616423,-0.120795 0.191544,-0.07025 0.366544,-0.152492 0.525004,-0.246729 0.15846,-0.09424 0.299504,-0.1919 0.423137,-0.29299 0.123634,-0.101091 0.227241,-0.187617 0.310824,-0.25958 0.09403,-0.07882 0.188931,-0.171339 0.284703,-0.27757 0.09577,-0.106231 0.188061,-0.215887 0.276868,-0.328972 0.08881,-0.113085 0.172389,-0.225311 0.250748,-0.336682 0.07836,-0.111371 0.145399,-0.211604 0.201121,-0.300701 0,0.298132 0.03396,0.551712 0.101867,0.760748 0.06791,0.209035 0.162811,0.380373 0.284704,0.514018 0.121892,0.133646 0.265548,0.230452 0.430973,0.290421 0.165425,0.05997 0.34739,0.08995 0.5459,0.08995 0.195027,0 0.400499,-0.04969 0.616423,-0.149065 0.215923,-0.09938 0.434455,-0.233878 0.655602,-0.403505 0.221147,-0.169627 0.44142,-0.367522 0.660826,-0.593692 0.04125,-0.04253 0.08217,-0.0855 0.122744,-0.128938 -0.02308,0.111407 -0.04223,0.217781 -0.05744,0.319125 -0.02264,0.15078 -0.03396,0.27757 -0.03396,0.380374 0,0.137073 0.03221,0.278426 0.09664,0.424066 0.06443,0.145639 0.159329,0.279282 0.284703,0.400934 0.125375,0.121652 0.28035,0.221884 0.464929,0.300701 0.18458,0.07882 0.397017,0.118224 0.637319,0.118224 0.111444,0 0.228981,-0.01628 0.352615,-0.04883 0.123633,-0.03255 0.249006,-0.07625 0.376122,-0.131075 0.127116,-0.05483 0.255101,-0.117367 0.383958,-0.187617 0.128857,-0.07025 0.251618,-0.143925 0.368286,-0.221028 0.116669,-0.0771 0.227241,-0.153348 0.331719,-0.228738 0.104479,-0.07539 0.196768,-0.145639 0.276868,-0.210748 -0.03134,0.08224 -0.07052,0.185046 -0.117538,0.308411 -0.04702,0.123365 -0.09664,0.253582 -0.148882,0.390654 -0.05224,0.137073 -0.103607,0.274143 -0.154105,0.411215 -0.0505,0.137073 -0.09664,0.260436 -0.138434,0.370094 -0.04179,0.109658 -0.07575,0.197897 -0.101867,0.26472 -0.02612,0.06682 -0.03918,0.100233 -0.03918,0.100233 -0.0592,0.16106 -0.122762,0.324688 -0.190673,0.490888 -0.06791,0.1662 -0.130598,0.323831 -0.188061,0.472897 -0.05746,0.149066 -0.105349,0.286137 -0.143658,0.411215 -0.03831,0.125079 -0.05746,0.225311 -0.05746,0.300701 0,0.06511 0.01306,0.131074 0.03918,0.197897 0.02612,0.06682 0.06269,0.126791 0.109702,0.179907 0.04702,0.05311 0.104478,0.09681 0.17239,0.131075 0.06791,0.03427 0.145398,0.0514 0.232464,0.0514 0.153236,0 0.276868,-0.03769 0.370899,-0.113084 0.09403,-0.07539 0.169777,-0.167055 0.22724,-0.275 0.05746,-0.107944 0.102737,-0.223597 0.135822,-0.346962 0.03308,-0.123365 0.06356,-0.231308 0.09142,-0.323832 0.0035,-0.01028 0.01915,-0.05911 0.04701,-0.146495 0.02786,-0.08738 0.06269,-0.197897 0.104479,-0.331543 0.04179,-0.133645 0.08968,-0.283566 0.143657,-0.449766 0.05398,-0.1662 0.107961,-0.336681 0.161942,-0.511448 0.05398,-0.174768 0.10709,-0.345249 0.15933,-0.511449 0.05224,-0.1662 0.09925,-0.315264 0.141045,-0.447196 0.04179,-0.131932 0.07575,-0.239875 0.101867,-0.323832 0.02612,-0.08396 0.04092,-0.131075 0.0444,-0.141355 0.05572,-0.191902 0.12015,-0.394937 0.193285,-0.609112 0.07314,-0.214176 0.14714,-0.427491 0.222017,-0.639954 0.07488,-0.212462 0.149752,-0.418924 0.224629,-0.619392 0.07488,-0.200468 0.141045,-0.384657 0.198509,-0.55257 0.05746,-0.167914 0.105349,-0.314408 0.143657,-0.439486 0.03831,-0.125079 0.0592,-0.216745 0.06269,-0.285281 0,-0.123365 -0.0061,-0.227024 -0.01828,-0.310981 -0.01219,-0.08396 -0.03744,-0.150779 -0.07575,-0.200467 -0.03831,-0.04969 -0.09316,-0.08481 -0.164554,-0.105374 -0.07139,-0.02056 -0.166294,-0.03084 -0.284703,-0.03084 -0.05224,0 -0.108832,0.01285 -0.169778,0.03855 -0.06095,0.0257 -0.12015,0.0634 -0.177613,0.113084 -0.05746,0.04969 -0.111444,0.113084 -0.161942,0.190187 -0.0505,0.0771 -0.09142,0.167056 -0.122762,0.26986 -0.04179,0.143926 -0.09142,0.304127 -0.148882,0.480608 -0.05746,0.17648 -0.115796,0.348675 -0.175001,0.516588 -0.0592,0.167914 -0.115797,0.317835 -0.169777,0.449767 -0.05398,0.131932 -0.100125,0.223598 -0.138434,0.275 -0.08358,0.113084 -0.182837,0.21503 -0.297764,0.305841 -0.114927,0.09081 -0.219404,0.165342 -0.313435,0.223598 -0.114927,0.06854 -0.235947,0.144781 -0.363063,0.228738 -0.127116,0.08396 -0.257712,0.162773 -0.391794,0.236449 -0.134081,0.07368 -0.269031,0.135358 -0.404854,0.185047 -0.135822,0.04969 -0.266419,0.07453 -0.391794,0.07453 -0.03134,0 -0.07226,-0.006 -0.122762,-0.01799 -0.0505,-0.01199 -0.09925,-0.03084 -0.14627,-0.05654 -0.04701,-0.0257 -0.08793,-0.06083 -0.122762,-0.105374 -0.03483,-0.04455 -0.05224,-0.09938 -0.05224,-0.164486 0,-0.188475 0.02089,-0.375233 0.06269,-0.560281 0.04179,-0.185047 0.09229,-0.362382 0.151494,-0.532009 0.0592,-0.169627 0.123632,-0.327258 0.193285,-0.472897 0.06965,-0.14564 0.130598,-0.271573 0.182837,-0.377804 0.0592,-0.123365 0.108832,-0.229594 0.148882,-0.318691 0.04005,-0.0891 0.06008,-0.157633 0.06008,-0.205608 0,-0.07882 -0.007,-0.152492 -0.0209,-0.221028 -0.01393,-0.06854 -0.04005,-0.130218 -0.07836,-0.185047 -0.03831,-0.05483 -0.09142,-0.09766 -0.159329,-0.128504 -0.06791,-0.03084 -0.155847,-0.04626 -0.263808,-0.04626 -0.02655,0 -0.05267,0.0016 -0.07838,0.0049 -0.02033,-0.0033 -0.03774,-0.0049 -0.05222,-0.0049 -0.125375,0 -0.25423,0.06768 -0.38657,0.203037 -0.13234,0.135359 -0.278609,0.305841 -0.43881,0.511449 -0.111444,0.140499 -0.230722,0.289563 -0.357838,0.447196 -0.127116,0.157633 -0.259454,0.313551 -0.397018,0.467757 -0.137564,0.154207 -0.276867,0.3007 -0.417914,0.439486 -0.141047,0.138786 -0.28122,0.261292 -0.420526,0.367524 -0.139305,0.106231 -0.274255,0.191043 -0.404854,0.254439 -0.130598,0.0634 -0.255101,0.09509 -0.37351,0.09509 -0.156718,0 -0.277738,-0.08652 -0.363063,-0.259579 -0.08532,-0.173054 -0.127986,-0.410357 -0.127986,-0.711916 0,-0.174767 0.01219,-0.367522 0.03657,-0.578271 0.02438,-0.210749 0.05398,-0.414641 0.08881,-0.611682 0.03483,-0.197042 0.06878,-0.375233 0.101866,-0.53458 0.03308,-0.159346 0.05659,-0.273286 0.07052,-0.341822 -0.007,-0.126792 -0.05224,-0.233878 -0.135822,-0.321262 -0.08358,-0.08738 -0.203732,-0.131075 -0.36045,-0.131075 -0.05224,0 -0.107091,0.01114 -0.164554,0.03341 -0.05746,0.02227 -0.111443,0.04969 -0.161942,0.08224 -0.0505,0.03255 -0.0949,0.06854 -0.13321,0.107943 -0.03831,0.03941 -0.06443,0.07625 -0.07836,0.110515 -0.0209,0.0514 -0.03831,0.09766 -0.05224,0.138785 -0.01393,0.04112 -0.02525,0.08053 -0.03396,0.118224 -0.0087,0.03769 -0.01741,0.07453 -0.02612,0.110514 -0.0087,0.03598 -0.01828,0.07796 -0.02873,0.125934 -0.01393,0.05483 -0.03657,0.127648 -0.06791,0.218458 -0.03134,0.09081 -0.06617,0.185903 -0.104479,0.285281 -0.03831,0.09938 -0.07836,0.19447 -0.12015,0.28528 -0.04179,0.09081 -0.07836,0.163629 -0.109702,0.218458 -0.05921,0.106231 -0.139304,0.231308 -0.240301,0.375234 -0.100996,0.143926 -0.210697,0.29042 -0.329107,0.439486 -0.118409,0.149066 -0.239429,0.29042 -0.363062,0.424065 -0.123634,0.133646 -0.237688,0.243302 -0.342167,0.328972 -0.08707,0.07196 -0.178483,0.143068 -0.274256,0.213318 -0.09577,0.07025 -0.194155,0.132788 -0.295151,0.187617 -0.100997,0.05483 -0.204603,0.09938 -0.310824,0.133644 -0.10622,0.03427 -0.215051,0.0514 -0.326495,0.0514 -0.0801,0 -0.144528,-0.04198 -0.193285,-0.125934 -0.04876,-0.08396 -0.07314,-0.197897 -0.07314,-0.341823 0,-0.284425 0.02351,-0.549998 0.07052,-0.796729 0.04702,-0.24673 0.09838,-0.466042 0.154106,-0.657944 0.05572,-0.191901 0.10709,-0.352958 0.154106,-0.483177 0.04702,-0.130219 0.07052,-0.221028 0.07052,-0.27243 0,-0.06511 -0.0087,-0.131931 -0.02612,-0.200467 -0.01741,-0.06854 -0.04789,-0.130218 -0.09142,-0.185047 -0.04353,-0.05483 -0.100995,-0.100234 -0.172389,-0.136215 -0.07139,-0.03598 -0.161071,-0.05397 -0.269032,-0.05397 -0.08358,0.0034 -0.153235,0.01885 -0.208957,0.04626 -0.05572,0.02741 -0.102737,0.06254 -0.141046,0.105374 -0.03831,0.04283 -0.07226,0.09424 -0.101866,0.154205 -0.0296,0.05997 -0.06008,0.125934 -0.09142,0.197897 -0.0072,0.01713 -0.01433,0.03438 -0.02134,0.05177 z M 27.96693,35.65534 c 0,0.07539 -0.01741,0.193613 -0.05224,0.354673 -0.01045,0.04798 -0.04702,0.107943 -0.109702,0.179906 -0.06269,0.07196 -0.154976,0.155919 -0.276868,0.251869 -0.111444,0.0891 -0.213309,0.155919 -0.305599,0.200467 -0.09229,0.04455 -0.169777,0.06682 -0.232465,0.06682 -0.13234,0 -0.238558,-0.01456 -0.318659,-0.04369 -0.0801,-0.02913 -0.141916,-0.07368 -0.185449,-0.133644 -0.04353,-0.05997 -0.07226,-0.137928 -0.0862,-0.233879 -0.01393,-0.09595 -0.02089,-0.210747 -0.02089,-0.344392 0,-0.09595 8.7e-4,-0.17648 0.0026,-0.241589 0.0017,-0.06511 0.0078,-0.121651 0.01828,-0.169626 0.03134,-0.23645 0.33607,-0.354673 0.914186,-0.354673 0.139306,0 0.249878,0.01713 0.331719,0.0514 0.08184,0.03427 0.155847,0.0891 0.222017,0.164486 0.06617,0.06511 0.09926,0.149065 0.09926,0.25187 l 0,0 z m 12.814278,-3.402804 c 0,-0.133646 -0.02177,-0.227882 -0.0653,-0.28271 -0.04353,-0.05483 -0.08619,-0.08224 -0.127986,-0.08224 -0.09403,0 -0.188931,0.03084 -0.284704,0.09252 -0.09577,0.06168 -0.18806,0.143925 -0.276867,0.246729 -0.08881,0.102804 -0.174131,0.220171 -0.255972,0.352103 -0.08184,0.131932 -0.154106,0.269002 -0.216793,0.411215 -0.06269,0.142212 -0.114926,0.282709 -0.156718,0.421495 -0.04179,0.138786 -0.06965,0.264719 -0.08358,0.377804 0.219406,-0.174767 0.419655,-0.338395 0.600751,-0.490888 0.181097,-0.152493 0.335201,-0.293847 0.462317,-0.424065 0.127116,-0.130219 0.22637,-0.247586 0.297764,-0.352103 0.07139,-0.104518 0.10709,-0.19447 0.10709,-0.26986 l 0,0 z m 52.391314,2.137825 c -0.03965,0.03209 -0.08164,0.06995 -0.125982,0.113577 -0.06617,0.07196 -0.144528,0.140498 -0.235076,0.205607 -0.229854,0.174767 -0.436197,0.320405 -0.619035,0.436916 -0.182838,0.116512 -0.350873,0.209034 -0.504108,0.27757 -0.153236,0.06854 -0.296893,0.116511 -0.430974,0.143925 -0.134081,0.02741 -0.269031,0.04112 -0.404854,0.04112 -0.0592,0 -0.119279,-0.01456 -0.180225,-0.04369 -0.06095,-0.02913 -0.115797,-0.08396 -0.164554,-0.164486 -0.04876,-0.08053 -0.08881,-0.193613 -0.12015,-0.339252 -0.03134,-0.145639 -0.04702,-0.334968 -0.04702,-0.567991 0,-0.181621 0.0087,-0.388083 0.02612,-0.619392 0.01741,-0.23131 0.03918,-0.460046 0.0653,-0.686215 0.02612,-0.226169 0.05485,-0.437772 0.0862,-0.634813 0.03134,-0.197042 0.0592,-0.352102 0.08358,-0.465187 0.0035,-0.01713 0.01132,-0.05054 0.02351,-0.100234 0.01219,-0.04969 0.02699,-0.1088 0.0444,-0.177336 0.01741,-0.06854 0.0357,-0.141355 0.05485,-0.218458 0.01915,-0.0771 0.03744,-0.150779 0.05485,-0.221028 0.01741,-0.07025 0.03221,-0.131931 0.0444,-0.185047 0.01219,-0.05311 0.02177,-0.08995 0.02873,-0.110514 0.04527,-0.167914 0.09055,-0.334968 0.135822,-0.501168 0.04527,-0.1662 0.0862,-0.323831 0.122762,-0.472897 0.03657,-0.149067 0.06704,-0.286994 0.09142,-0.413785 0.02438,-0.126792 0.03657,-0.236449 0.03657,-0.328972 0,-0.08224 -0.0052,-0.157632 -0.01567,-0.226169 -0.01045,-0.06854 -0.03396,-0.127647 -0.07052,-0.177336 -0.03657,-0.04969 -0.09055,-0.08824 -0.161941,-0.115654 -0.07139,-0.02742 -0.166294,-0.04112 -0.284704,-0.04112 -0.09403,0 -0.18719,0.03255 -0.27948,0.09766 -0.09229,0.06511 -0.176742,0.146495 -0.25336,0.244159 -0.07662,0.09766 -0.143657,0.20218 -0.201121,0.313551 -0.05746,0.111371 -0.100125,0.215031 -0.127986,0.310981 -0.02786,0.09252 -0.05659,0.19961 -0.08619,0.321262 -0.0296,0.121652 -0.06007,0.249298 -0.09142,0.382944 -0.03134,0.133646 -0.06095,0.268146 -0.08881,0.403505 -0.02786,0.135359 -0.05224,0.264719 -0.07313,0.388084 -0.01647,0.09726 -0.03454,0.203519 -0.05419,0.318776 -0.02092,0.03382 -0.04117,0.06463 -0.06073,0.09244 -0.181097,0.311839 -0.385698,0.60397 -0.613811,0.876402 -0.228112,0.272431 -0.467539,0.529438 -0.718289,0.771028 -0.250749,0.24159 -0.50846,0.470326 -0.77314,0.686215 -0.26468,0.215889 -0.525874,0.423207 -0.783588,0.621962 0.100996,-0.140499 0.195896,-0.30584 0.284703,-0.496028 0.08881,-0.190188 0.166295,-0.382943 0.232465,-0.578271 0.06617,-0.195328 0.118409,-0.38123 0.156717,-0.55771 0.03831,-0.176481 0.05746,-0.319548 0.05746,-0.429206 0,-0.126792 -0.03047,-0.254438 -0.09142,-0.382944 -0.06095,-0.128505 -0.143657,-0.245015 -0.248136,-0.349532 -0.104479,-0.104518 -0.225499,-0.18933 -0.363063,-0.25444 -0.137564,-0.06511 -0.282961,-0.09766 -0.436197,-0.09766 -0.139305,0 -0.281221,0.02399 -0.42575,0.07196 -0.144529,0.04798 -0.287315,0.110514 -0.428361,0.187617 -0.141047,0.0771 -0.276867,0.163629 -0.407466,0.25958 -0.130599,0.09595 -0.249877,0.193613 -0.357839,0.29299 -0.08358,0.07539 -0.173259,0.173053 -0.269032,0.292991 -0.09577,0.119938 -0.192414,0.249298 -0.289927,0.388084 -0.09751,0.138786 -0.193285,0.280996 -0.287316,0.426636 -0.09403,0.145639 -0.177613,0.283566 -0.250748,0.413785 0.0209,-0.07882 0.04266,-0.173909 0.0653,-0.285281 0.02264,-0.111371 0.04266,-0.223597 0.06007,-0.336682 0.01741,-0.113085 0.03221,-0.220171 0.0444,-0.321262 0.01219,-0.10109 0.01828,-0.184189 0.01828,-0.249299 0,-0.06854 -0.01219,-0.138784 -0.03657,-0.210747 -0.02438,-0.07196 -0.06007,-0.137928 -0.10709,-0.197897 -0.04702,-0.05997 -0.105349,-0.108801 -0.175001,-0.146496 -0.06965,-0.03769 -0.149752,-0.05654 -0.240301,-0.05654 -0.201992,0 -0.351743,0.0711 -0.449257,0.213318 -0.09751,0.142212 -0.165424,0.339251 -0.203733,0.591121 -0.02358,0.155033 -0.04122,0.328241 -0.05293,0.519626 l 0,0 c -0.16517,0.163871 -0.32514,0.321347 -0.479913,0.47243 -0.219406,0.214176 -0.435325,0.413785 -0.647766,0.598832 -0.19851,0.174767 -0.379604,0.299844 -0.543288,0.375234 -0.163683,0.07539 -0.287315,0.113084 -0.370898,0.113084 -0.06965,0 -0.143658,-0.02741 -0.222017,-0.08224 -0.07836,-0.05483 -0.154105,-0.125934 -0.22724,-0.213318 -0.07314,-0.08738 -0.141917,-0.185046 -0.206345,-0.29299 -0.06443,-0.107945 -0.11928,-0.216744 -0.164554,-0.326402 -0.03831,-0.0891 -0.08184,-0.198754 -0.130598,-0.328972 -0.04876,-0.130219 -0.09925,-0.263006 -0.151494,-0.398365 -0.05224,-0.135359 -0.105348,-0.265575 -0.159329,-0.390654 -0.05398,-0.125078 -0.10709,-0.228738 -0.15933,-0.310981 -0.118409,-0.178194 -0.316916,-0.26729 -0.595527,-0.26729 -0.282093,0 -0.551993,0.138784 -0.809708,0.416355 -0.118409,0.130219 -0.233334,0.265576 -0.344778,0.406075 -0.111445,0.140499 -0.221146,0.31355 -0.329107,0.519159 -0.007,0.01371 -0.02786,0.05483 -0.06269,0.123364 -0.03483,0.06854 -0.07575,0.150779 -0.122762,0.246729 -0.04702,0.09595 -0.09838,0.19704 -0.154106,0.303271 -0.05572,0.106231 -0.10709,0.203894 -0.154106,0.292991 -0.04701,0.0891 -0.08794,0.163629 -0.122762,0.223598 -0.03483,0.05997 -0.05572,0.08995 -0.06269,0.08995 -0.02438,0 -0.04353,-0.02827 -0.05746,-0.08481 -0.01393,-0.05654 -0.02438,-0.123364 -0.03134,-0.200467 -0.007,-0.0771 -0.01219,-0.153349 -0.01567,-0.228738 -0.0035,-0.07539 -0.007,-0.131932 -0.01045,-0.169627 -0.01741,-0.243303 -0.03918,-0.484889 -0.0653,-0.724766 -0.02612,-0.239876 -0.06704,-0.454049 -0.122762,-0.642523 -0.05572,-0.188475 -0.134081,-0.340965 -0.235077,-0.457477 -0.100996,-0.116511 -0.235076,-0.174766 -0.402242,-0.174766 -0.19851,0 -0.389181,0.04369 -0.572019,0.131074 -0.182838,0.08738 -0.352614,0.218458 -0.509333,0.393225 -0.100996,0.113085 -0.218533,0.260435 -0.352614,0.442056 -0.134082,0.181621 -0.274255,0.379516 -0.420526,0.593692 -0.14627,0.214175 -0.293409,0.436057 -0.441421,0.665654 -0.148012,0.229596 -0.284703,0.447195 -0.410078,0.652803 0.0035,-0.09938 0.01828,-0.215887 0.0444,-0.349532 0.02612,-0.133646 0.05833,-0.275 0.09664,-0.424066 0.03831,-0.149066 0.07836,-0.3007 0.12015,-0.454906 0.04179,-0.154207 0.08097,-0.303271 0.117538,-0.447197 0.03657,-0.143925 0.06704,-0.276712 0.09142,-0.398364 0.02438,-0.121652 0.03657,-0.223598 0.03657,-0.305841 0,-0.277572 -0.0505,-0.478037 -0.151494,-0.601402 -0.100996,-0.123365 -0.269901,-0.185047 -0.50672,-0.185047 -0.14627,0 -0.260325,0.04112 -0.342167,0.123365 -0.08184,0.08224 -0.122762,0.183332 -0.122762,0.303271 0,0.08567 -0.0026,0.169626 -0.0078,0.251869 -0.0052,0.08224 -0.01654,0.179049 -0.03396,0.29042 -0.01261,0.08065 -0.02841,0.174325 -0.04742,0.281029 -7.34e-4,-3.01e-4 -0.0015,-5.97e-4 -0.0022,-8.88e-4 -0.04353,-0.01713 -0.08445,-0.0257 -0.122763,-0.0257 -0.02786,0 -0.05572,0.0077 -0.08358,0.02313 -0.02786,0.01542 -0.05398,0.03427 -0.07836,0.05654 -0.02438,0.02227 -0.04702,0.04455 -0.06791,0.06682 -0.0209,0.02227 -0.03831,0.04198 -0.05224,0.05911 -0.05224,0.05483 -0.101867,0.107087 -0.148882,0.156776 -0.04702,0.04969 -0.0949,0.10109 -0.143658,0.154206 -0.04876,0.05312 -0.101866,0.1088 -0.15933,0.167056 -0.05746,0.05826 -0.12102,0.123364 -0.190673,0.195327 -0.153235,0.157633 -0.305598,0.30327 -0.457093,0.436916 -0.151494,0.133645 -0.305598,0.267289 -0.462317,0.400934 -0.167166,0.143926 -0.329977,0.270716 -0.488436,0.380374 -0.15846,0.109658 -0.310823,0.205607 -0.457093,0.287851 -0.153236,0.08567 -0.297763,0.141354 -0.433586,0.167056 -0.135823,0.0257 -0.257713,0.03855 -0.365674,0.03855 -0.07314,0 -0.137563,-0.04712 -0.193286,-0.141355 -0.05572,-0.09424 -0.102736,-0.210747 -0.141045,-0.349533 -0.03831,-0.138786 -0.06704,-0.288706 -0.0862,-0.449766 -0.01915,-0.16106 -0.02873,-0.306697 -0.02873,-0.436916 0,-0.07196 0.0035,-0.147352 0.01045,-0.226168 0.007,-0.07882 0.01654,-0.167056 0.02873,-0.26472 0.01219,-0.09766 0.02699,-0.20732 0.0444,-0.328972 0.01741,-0.121652 0.03657,-0.259579 0.05746,-0.413785 0.01741,-0.130219 0.03657,-0.258722 0.05746,-0.385514 0.0209,-0.126792 0.03134,-0.236448 0.03134,-0.328972 0,-0.267291 -0.113184,-0.400934 -0.339555,-0.400934 -0.222888,0 -0.424878,0.07196 -0.605975,0.215887 -0.09055,0.06854 -0.166294,0.143068 -0.22724,0.223598 -0.05472,0.0723 -0.0961,0.148045 -0.124146,0.227247 l 0,0 c -0.06648,0.06241 -0.136545,0.132296 -0.210185,0.209669 -0.102738,0.107945 -0.211569,0.221884 -0.326495,0.341823 -0.212441,0.226169 -0.389182,0.409501 -0.530229,0.55 -0.141046,0.140499 -0.265548,0.260435 -0.37351,0.359813 -0.107961,0.09938 -0.210697,0.188473 -0.308211,0.26729 -0.09751,0.07882 -0.210698,0.167912 -0.339555,0.267289 -0.01741,-0.07539 -0.06704,-0.152492 -0.148882,-0.231308 -0.08184,-0.07882 -0.178483,-0.157632 -0.289928,-0.236449 -0.125374,-0.0891 -0.257712,-0.188473 -0.397017,-0.29813 -0.139306,-0.109658 -0.26642,-0.215888 -0.381347,-0.318692 -0.114927,-0.102804 -0.210698,-0.196184 -0.287315,-0.28014 -0.07662,-0.08396 -0.114927,-0.146495 -0.114927,-0.187617 0,-0.02741 0.02177,-0.06511 0.0653,-0.113084 0.04353,-0.04798 0.09751,-0.10366 0.161942,-0.167056 0.06443,-0.0634 0.13408,-0.131931 0.208957,-0.205608 0.07488,-0.07368 0.144528,-0.150778 0.208957,-0.231308 0.06443,-0.08053 0.118408,-0.162772 0.161941,-0.246729 0.04353,-0.08396 0.0653,-0.165343 0.0653,-0.244159 0,-0.06168 -0.01654,-0.122508 -0.04963,-0.182477 -0.03308,-0.05997 -0.07662,-0.113084 -0.130598,-0.159346 -0.05398,-0.04626 -0.115797,-0.0831 -0.185449,-0.110514 -0.06965,-0.02741 -0.142787,-0.04112 -0.219405,-0.04112 -0.05224,0 -0.117538,0.0197 -0.195897,0.05911 -0.07836,0.03941 -0.159329,0.08995 -0.242912,0.151636 -0.08358,0.06168 -0.163683,0.130217 -0.240301,0.205607 -0.07662,0.07539 -0.141045,0.150779 -0.193285,0.226168 -0.09403,0.1405 -0.172389,0.264719 -0.235076,0.372664 -0.06269,0.107944 -0.112314,0.211604 -0.148882,0.310981 -0.03657,0.09938 -0.06269,0.19961 -0.07836,0.300701 -0.01567,0.101091 -0.02351,0.215031 -0.02351,0.341823 0,0.06854 0.01915,0.148208 0.05746,0.239018 0.03831,0.09081 0.09316,0.183333 0.164553,0.27757 0.07139,0.09424 0.157588,0.188473 0.258584,0.282711 0.100997,0.09424 0.21418,0.180762 0.339555,0.259579 0.313437,0.195328 0.537193,0.360669 0.671274,0.496028 0.134081,0.135359 0.201121,0.257866 0.201121,0.367523 0,0.15078 -0.04963,0.302414 -0.148882,0.454907 -0.09925,0.152493 -0.253359,0.288707 -0.462317,0.408645 -0.128857,0.07196 -0.266419,0.146495 -0.41269,0.223598 -0.14627,0.0771 -0.28122,0.159345 -0.404854,0.246729 -0.123633,0.08738 -0.226369,0.180763 -0.308211,0.28014 -0.08184,0.09938 -0.122762,0.209034 -0.122762,0.328972 0,0.07196 0.01741,0.135358 0.05224,0.190187 0.03483,0.05483 0.08358,0.10109 0.14627,0.138785 0.06269,0.03769 0.135822,0.06682 0.219405,0.08738 0.08358,0.02056 0.17413,0.03084 0.271644,0.03084 0.205475,0 0.403111,-0.05911 0.592915,-0.177336 0.189803,-0.118225 0.383957,-0.264719 0.582467,-0.439486 0.0209,-0.02056 0.06356,-0.06339 0.127986,-0.128505 0.06443,-0.06511 0.137563,-0.142211 0.219405,-0.231308 0.08184,-0.0891 0.169777,-0.183333 0.263808,-0.28271 0.09403,-0.09938 0.181966,-0.193614 0.263808,-0.282711 0.08184,-0.0891 0.153234,-0.166199 0.21418,-0.231308 0.06095,-0.06511 0.100126,-0.10623 0.117539,-0.123365 0.02438,-0.02399 0.06617,-0.06425 0.125374,-0.120794 0.0592,-0.05654 0.127115,-0.121651 0.203733,-0.195327 0.07662,-0.07368 0.157588,-0.150779 0.242912,-0.231309 0.08532,-0.08053 0.164553,-0.155918 0.237688,-0.226168 0.07314,-0.07025 0.136693,-0.131074 0.190674,-0.182476 0.05398,-0.0514 0.08794,-0.08396 0.101866,-0.09766 0.08358,-0.07882 0.178483,-0.179049 0.284704,-0.300701 0.09315,-0.106685 0.188981,-0.220615 0.287489,-0.341795 -0.0019,0.04161 -0.0028,0.07758 -0.0028,0.107917 0,0.185047 0.0087,0.380372 0.02612,0.585981 0.01741,0.205609 0.04963,0.408644 0.09664,0.609112 0.04702,0.200468 0.110572,0.390653 0.190673,0.570561 0.0801,0.179907 0.183707,0.339252 0.310823,0.478037 0.127116,0.138786 0.28035,0.248442 0.459705,0.328972 0.179356,0.08053 0.390922,0.120795 0.634707,0.120795 0.208957,0 0.430101,-0.04712 0.663438,-0.141356 0.233336,-0.09424 0.470151,-0.227024 0.710453,-0.398364 0.118409,-0.08567 0.230722,-0.171339 0.336943,-0.257009 0.10622,-0.08567 0.211568,-0.173053 0.316047,-0.26215 0.104479,-0.0891 0.208086,-0.183333 0.310823,-0.28271 0.102738,-0.09938 0.211568,-0.205607 0.326495,-0.318692 0.07662,-0.07539 0.15933,-0.165342 0.248137,-0.26986 0.08881,-0.104517 0.176742,-0.21503 0.263808,-0.331542 0.08706,-0.116511 0.172389,-0.233021 0.255972,-0.349532 0.03315,-0.04621 0.06466,-0.09135 0.09453,-0.135406 l 0,0 c -0.01243,0.0671 -0.02391,0.129367 -0.03445,0.186808 -0.02264,0.123365 -0.04092,0.238161 -0.05485,0.344392 -0.01393,0.106231 -0.02438,0.209034 -0.03134,0.308411 -0.007,0.09938 -0.01045,0.209034 -0.01045,0.328972 0,0.16106 0.007,0.316121 0.0209,0.465187 0.01393,0.149066 0.04179,0.297274 0.08358,0.444626 0.04876,0.164487 0.121891,0.28785 0.219404,0.370094 0.09751,0.08224 0.238559,0.123364 0.423138,0.123364 0.0592,0 0.128856,-0.0257 0.208957,-0.0771 0.0801,-0.0514 0.161941,-0.118224 0.245524,-0.200468 0.08358,-0.08224 0.166295,-0.176479 0.248136,-0.28271 0.08184,-0.106231 0.155847,-0.215887 0.222017,-0.328972 0.107962,-0.181621 0.21418,-0.358099 0.318659,-0.529439 0.104479,-0.171341 0.212439,-0.341822 0.323883,-0.511449 0.111445,-0.169627 0.22724,-0.339251 0.347391,-0.508878 0.120151,-0.169627 0.248136,-0.343535 0.383958,-0.521729 0.0592,-0.07882 0.118409,-0.139642 0.177614,-0.182477 0.05921,-0.04284 0.102737,-0.06425 0.130598,-0.06425 0.08706,0 0.144528,0.426631 0.172389,1.279906 0.01045,0.270718 0.02786,0.503738 0.05224,0.699066 0.02438,0.195328 0.0653,0.356385 0.122763,0.483177 0.05746,0.126792 0.136692,0.220171 0.237688,0.28014 0.100996,0.05997 0.229852,0.08995 0.38657,0.08995 0.100996,0 0.203732,-0.03427 0.308211,-0.102804 0.104479,-0.06854 0.212439,-0.167912 0.323884,-0.298131 0.111444,-0.130219 0.22811,-0.289563 0.350002,-0.478037 0.121892,-0.188475 0.252489,-0.40436 0.391794,-0.647664 0.243785,-0.428351 0.43968,-0.761603 0.587692,-0.999766 0.148011,-0.238163 0.262066,-0.357243 0.342166,-0.357243 0.02786,0 0.05224,0.01542 0.07314,0.04626 0.0209,0.03084 0.04353,0.07539 0.06791,0.133645 0.02438,0.05826 0.05224,0.129361 0.08358,0.213318 0.03134,0.08396 0.06965,0.180763 0.114926,0.290421 0.03831,0.09252 0.08532,0.200466 0.141046,0.323831 0.05572,0.123365 0.119279,0.250155 0.190673,0.380374 0.07139,0.130219 0.151493,0.259579 0.240301,0.388084 0.08881,0.128506 0.186319,0.242445 0.292539,0.341823 0.106221,0.09938 0.220275,0.179906 0.342167,0.241588 0.121892,0.06168 0.252489,0.09252 0.391794,0.09252 0.104479,0 0.215922,-0.02056 0.334331,-0.06168 0.11841,-0.04112 0.235947,-0.09338 0.352615,-0.156776 0.116668,-0.0634 0.22724,-0.131931 0.331719,-0.205608 0.104479,-0.07368 0.195026,-0.141354 0.271644,-0.203037 0.250749,-0.209035 0.493659,-0.441198 0.728737,-0.696495 0.0913,-0.09915 0.182731,-0.204638 0.274293,-0.316454 -0.0058,0.176938 -0.01282,0.360381 -0.02093,0.550332 -0.01741,0.431778 -0.04614,0.852413 -0.0862,1.261916 -0.04005,0.409504 -0.08271,0.777024 -0.127986,1.10257 -0.007,0.04112 -0.0148,0.101947 -0.02351,0.182477 -0.0087,0.08053 -0.01828,0.171339 -0.02873,0.27243 -0.01045,0.101091 -0.0209,0.208177 -0.03134,0.321261 -0.01045,0.113085 -0.02003,0.225311 -0.02873,0.336683 -0.0087,0.111371 -0.01567,0.216744 -0.0209,0.316121 -0.0052,0.09938 -0.0078,0.185047 -0.0078,0.25701 0,0.06854 0.0209,0.133644 0.06269,0.195327 0.04179,0.06168 0.09229,0.11651 0.151494,0.164486 0.05921,0.04798 0.122762,0.08567 0.190673,0.113084 0.06791,0.02741 0.129727,0.04112 0.185449,0.04112 0.111444,0 0.202862,-0.01371 0.274256,-0.04112 0.07139,-0.02742 0.130598,-0.06597 0.177614,-0.115654 0.04702,-0.04969 0.08619,-0.109657 0.117538,-0.179907 0.03134,-0.07025 0.0592,-0.149922 0.08358,-0.239019 0.05572,-0.188474 0.08706,-0.398363 0.09403,-0.629673 0.007,-0.231309 0.01741,-0.461759 0.03134,-0.691355 0.007,-0.140499 0.01567,-0.283566 0.02612,-0.429205 0.01045,-0.14564 0.01915,-0.3007 0.02612,-0.465187 0.007,-0.222743 0.01306,-0.420638 0.01828,-0.593692 0.0052,-0.173054 0.0148,-0.334968 0.02873,-0.485747 0.09055,-0.178195 0.192414,-0.364953 0.305599,-0.560281 0.113186,-0.195328 0.235947,-0.393223 0.368287,-0.593691 0.13234,-0.200469 0.275996,-0.400077 0.430973,-0.598832 0.154978,-0.198755 0.319529,-0.387227 0.493661,-0.565421 0.05921,-0.06168 0.128856,-0.130217 0.208957,-0.205607 0.0801,-0.07539 0.161941,-0.146495 0.245524,-0.213318 0.08358,-0.06682 0.167165,-0.122508 0.250748,-0.167056 0.08358,-0.04455 0.1602,-0.06682 0.229853,-0.06682 0.02786,0 0.05137,0.01371 0.07052,0.04112 0.01915,0.02741 0.03483,0.06168 0.04702,0.102804 0.01219,0.04112 0.02177,0.08738 0.02873,0.138785 0.007,0.0514 0.01045,0.10109 0.01045,0.149065 0,0.106231 -0.01567,0.226168 -0.04702,0.359813 -0.03134,0.133646 -0.07313,0.27243 -0.125374,0.416355 -0.05224,0.143926 -0.112314,0.289563 -0.180225,0.436916 -0.06791,0.147353 -0.138434,0.28785 -0.211569,0.421496 -0.07314,0.133645 -0.14714,0.257865 -0.222017,0.372663 -0.07488,0.114798 -0.145399,0.211604 -0.211569,0.290421 -0.07313,0.0514 -0.13408,0.09338 -0.182837,0.125934 -0.04876,0.03256 -0.101866,0.06597 -0.159329,0.100234 -0.05746,0.03427 -0.124503,0.07196 -0.201121,0.113084 -0.07662,0.04112 -0.179354,0.09424 -0.308212,0.159346 -0.14627,0.07539 -0.258583,0.161059 -0.336943,0.257009 -0.07836,0.09595 -0.117538,0.203894 -0.117538,0.323832 0,0.05826 0.02351,0.115654 0.07052,0.172196 0.04702,0.05654 0.10709,0.106231 0.180226,0.149066 0.07313,0.04283 0.154975,0.0771 0.245524,0.102803 0.09055,0.0257 0.181095,0.03855 0.271644,0.03855 0.05224,0 0.120149,-0.01713 0.203733,-0.0514 0.08358,-0.03427 0.17413,-0.07796 0.271643,-0.131075 0.09751,-0.05311 0.197638,-0.113084 0.300376,-0.179906 0.102738,-0.06682 0.199379,-0.131932 0.289928,-0.195328 0.09055,-0.06339 0.172389,-0.122507 0.245524,-0.177336 0.07313,-0.05483 0.127115,-0.09595 0.161941,-0.123364 0.226372,-0.116512 0.461446,-0.251869 0.70523,-0.406075 0.243784,-0.154207 0.488435,-0.322974 0.733961,-0.506309 0.245525,-0.183334 0.485823,-0.376946 0.720901,-0.580841 0.235077,-0.203895 0.457963,-0.416354 0.668662,-0.637383 0.126198,-0.132386 0.246149,-0.266614 0.359853,-0.402687 l 0,0 c -0.0043,0.03933 -0.0084,0.07846 -0.01246,0.117407 -0.02089,0.202181 -0.03831,0.395793 -0.05224,0.580841 -0.01393,0.185048 -0.02089,0.351245 -0.02089,0.498598 0,0.390656 0.04353,0.717055 0.130598,0.979206 0.08707,0.26215 0.199379,0.472039 0.336943,0.629672 0.137563,0.157634 0.289056,0.269003 0.454481,0.334113 0.165425,0.06511 0.326494,0.09766 0.483212,0.09766 0.163684,0 0.33346,-0.02313 0.509333,-0.06939 0.175873,-0.04626 0.36132,-0.115654 0.556347,-0.208178 0.195028,-0.09252 0.403112,-0.209033 0.624259,-0.349533 0.221147,-0.140499 0.458833,-0.304983 0.713065,-0.493458 0.100996,-0.07539 0.202862,-0.157631 0.3056,-0.246729 0.02149,-0.01864 0.04252,-0.0372 0.0631,-0.05569 0.0088,0.03284 0.01827,0.06511 0.02832,0.09681 0.08358,0.263864 0.204603,0.484033 0.363063,0.660514 0.158459,0.176481 0.351743,0.310124 0.579855,0.400935 0.228112,0.09081 0.488435,0.136214 0.780976,0.136214 0.236819,0 0.4806,-0.03341 0.731349,-0.100233 0.25075,-0.06682 0.497142,-0.159345 0.739185,-0.27757 0.242043,-0.118225 0.475376,-0.258722 0.700005,-0.421495 0.22463,-0.162774 0.430973,-0.338395 0.619035,-0.52687 0.170649,-0.174767 0.30647,-0.342678 0.407466,-0.503738 0.100996,-0.16106 0.151494,-0.304984 0.151494,-0.431776 0,-0.126792 -0.02177,-0.214174 -0.0653,-0.262149 -0.04353,-0.04798 -0.0949,-0.07196 -0.154106,-0.07196 -0.05921,0 -0.122762,0.01713 -0.190673,0.0514 -0.06791,0.03427 -0.136692,0.09081 -0.206345,0.169626 -0.18458,0.202182 -0.379604,0.3838 -0.585079,0.54486 -0.205475,0.16106 -0.416171,0.29813 -0.632095,0.411215 -0.215923,0.113085 -0.435325,0.19961 -0.658214,0.259579 -0.222888,0.05997 -0.444032,0.08995 -0.663438,0.08995 -0.142788,0 -0.265548,-0.02313 -0.368286,-0.06939 -0.102738,-0.04626 -0.18719,-0.10366 -0.25336,-0.172196 -0.06617,-0.06854 -0.114926,-0.142212 -0.14627,-0.221028 -0.03134,-0.07882 -0.04876,-0.152492 -0.05224,-0.221028 0,-0.0069 0.01828,-0.02227 0.05485,-0.04626 0.03657,-0.02399 0.06356,-0.03941 0.08097,-0.04626 0.355228,-0.212462 0.679978,-0.419781 0.974261,-0.621962 0.294282,-0.202182 0.545899,-0.408644 0.754857,-0.619393 0.208957,-0.210748 0.371768,-0.431774 0.488436,-0.663084 0.116668,-0.231309 0.175002,-0.480606 0.175002,-0.747897 0,-0.113085 -0.02438,-0.227881 -0.07314,-0.344393 -0.04876,-0.116511 -0.118409,-0.221027 -0.208957,-0.313551 -0.09055,-0.09252 -0.201121,-0.168769 -0.331719,-0.228738 -0.130599,-0.05997 -0.279479,-0.08995 -0.446645,-0.08995 -0.205476,0 -0.396147,0.02827 -0.57202,0.08481 -0.175873,0.05654 -0.336942,0.129361 -0.483213,0.218458 -0.14627,0.0891 -0.279479,0.18933 -0.39963,0.300701 -0.12015,0.111372 -0.22724,0.221885 -0.321271,0.331543 -0.14627,0.174767 -0.276867,0.360668 -0.391794,0.55771 -0.114927,0.197041 -0.210698,0.400933 -0.287315,0.611682 -0.07662,0.210749 -0.134952,0.422351 -0.175002,0.634813 -0.03602,0.191082 -0.05584,0.37939 -0.05947,0.564928 z m -45.20851,-0.630824 c -0.108652,0.126677 -0.224419,0.256586 -0.347303,0.389728 -0.154977,0.167913 -0.315176,0.331541 -0.480601,0.490888 -0.165425,0.159346 -0.332588,0.309267 -0.501496,0.449766 -0.168908,0.140499 -0.33346,0.264719 -0.493661,0.372664 -0.160201,0.107944 -0.313434,0.192756 -0.459705,0.254439 -0.14627,0.06168 -0.276867,0.09252 -0.391794,0.09252 -0.06617,0 -0.129727,-0.01456 -0.190673,-0.04369 -0.06095,-0.02913 -0.114055,-0.07282 -0.159329,-0.131075 -0.04528,-0.05826 -0.08184,-0.134501 -0.109703,-0.228738 -0.02786,-0.09424 -0.04179,-0.204751 -0.04179,-0.331543 0,-0.25701 0.01306,-0.527724 0.03918,-0.812149 0.02612,-0.284425 0.06443,-0.576556 0.114927,-0.876402 0.0505,-0.299846 0.111443,-0.604827 0.182837,-0.914953 0.07139,-0.310126 0.152364,-0.617678 0.242912,-0.922664 0.007,-0.02399 0.02699,-0.08738 0.06007,-0.190187 0.03308,-0.102804 0.07139,-0.223597 0.114926,-0.362383 0.04353,-0.138786 0.09055,-0.286136 0.141046,-0.442056 0.0505,-0.15592 0.09664,-0.299844 0.138434,-0.431776 0.04179,-0.131932 0.07662,-0.241588 0.104479,-0.328972 0.02786,-0.08738 0.04179,-0.131074 0.04179,-0.131074 0,-0.195328 -0.03047,-0.337539 -0.09142,-0.426636 -0.06095,-0.0891 -0.152364,-0.133645 -0.274256,-0.133645 -0.160202,0 -0.310823,0.07368 -0.45187,0.221028 -0.141046,0.147353 -0.272514,0.343535 -0.394406,0.588552 -0.121892,0.245017 -0.234205,0.528581 -0.336943,0.850701 -0.102737,0.32212 -0.195026,0.657942 -0.276867,1.007476 -0.03224,0.137679 -0.06285,0.275489 -0.09185,0.413432 -0.115719,0.215282 -0.245303,0.427002 -0.388754,0.635166 -0.17239,0.250158 -0.353484,0.48746 -0.543288,0.711916 -0.189803,0.224456 -0.382216,0.432632 -0.577243,0.624533 -0.195028,0.191901 -0.381346,0.358099 -0.55896,0.498598 -0.135822,0.109658 -0.279479,0.206464 -0.430973,0.290421 -0.151495,0.08396 -0.305599,0.155062 -0.462317,0.213318 -0.156719,0.05825 -0.311694,0.101946 -0.464929,0.131074 -0.153236,0.02913 -0.297763,0.04369 -0.433586,0.04369 -0.174131,0 -0.315176,-0.01885 -0.423137,-0.05654 -0.107962,-0.03769 -0.193285,-0.08653 -0.255973,-0.146496 -0.06269,-0.05997 -0.10796,-0.127647 -0.135822,-0.203037 -0.02786,-0.07539 -0.0505,-0.150778 -0.06791,-0.226168 0,-0.0034 0.0096,-0.01285 0.02873,-0.02827 0.01916,-0.01542 0.0444,-0.03341 0.07575,-0.05397 0.03134,-0.02056 0.06443,-0.04112 0.09925,-0.06168 0.03483,-0.02056 0.06617,-0.03941 0.09403,-0.05654 0.400503,-0.253584 0.740925,-0.491744 1.021277,-0.714486 0.280351,-0.222743 0.50759,-0.436915 0.681721,-0.642524 0.174132,-0.205608 0.301246,-0.406074 0.381347,-0.601402 0.0801,-0.195328 0.12015,-0.39408 0.12015,-0.596261 0,-0.113085 -0.0209,-0.232165 -0.06269,-0.357243 -0.04179,-0.125079 -0.103608,-0.239019 -0.18545,-0.341823 -0.08184,-0.102804 -0.184577,-0.187616 -0.308211,-0.254439 -0.123633,-0.06682 -0.26729,-0.100234 -0.430973,-0.100234 -0.212441,0 -0.412689,0.03341 -0.600751,0.100234 -0.188062,0.06682 -0.361321,0.150778 -0.51978,0.251869 -0.15846,0.101091 -0.299505,0.211604 -0.423138,0.331542 -0.123633,0.119939 -0.22724,0.233021 -0.310823,0.339253 -0.13234,0.164486 -0.252489,0.344391 -0.360451,0.539719 -0.107962,0.195328 -0.201121,0.397507 -0.27948,0.606542 -0.07836,0.209036 -0.139304,0.422351 -0.182837,0.639953 -0.04216,0.210742 -0.06391,0.420677 -0.06523,0.629811 -0.02353,0.01189 -0.04706,0.02555 -0.07059,0.04098 -0.03657,0.02399 -0.07488,0.05226 -0.114926,0.08481 -0.04005,0.03256 -0.08794,0.06768 -0.143658,0.105374 -0.09751,0.06511 -0.222887,0.140498 -0.376122,0.226168 -0.153236,0.08567 -0.310823,0.171339 -0.472765,0.257009 -0.161943,0.08567 -0.316917,0.167056 -0.464929,0.244159 -0.148012,0.0771 -0.263808,0.139642 -0.347391,0.187617 -0.0035,-0.09595 -0.02177,-0.192756 -0.05485,-0.290421 -0.03308,-0.09766 -0.074,-0.192756 -0.122762,-0.28528 -0.04876,-0.09252 -0.101866,-0.180763 -0.15933,-0.264719 -0.05746,-0.08396 -0.110573,-0.160203 -0.159329,-0.228739 -0.07314,-0.102804 -0.154106,-0.21246 -0.242913,-0.328972 -0.08881,-0.116511 -0.162812,-0.236448 -0.222016,-0.359813 -0.04527,-0.0891 -0.07923,-0.188473 -0.101867,-0.298131 -0.02264,-0.109658 -0.0357,-0.20218 -0.03918,-0.27757 0.01045,-0.01028 0.01828,-0.01713 0.02351,-0.02056 0.0052,-0.0034 0.01045,-0.0077 0.01567,-0.01285 0.0052,-0.0051 0.01393,-0.01114 0.02612,-0.01799 0.01219,-0.0069 0.02873,-0.01885 0.04963,-0.03598 0.299506,-0.219316 0.511944,-0.410357 0.637318,-0.573131 0.125375,-0.162773 0.188061,-0.312694 0.188061,-0.449766 0,-0.219316 -0.05311,-0.380373 -0.159329,-0.483178 -0.10622,-0.102804 -0.26729,-0.154205 -0.483213,-0.154205 -0.100996,0 -0.215051,0.03769 -0.342167,0.113084 -0.127116,0.07539 -0.251618,0.173052 -0.37351,0.29299 -0.121892,0.119939 -0.232464,0.253582 -0.331719,0.400935 -0.09925,0.147353 -0.17326,0.294703 -0.222017,0.442056 -0.04179,0.130219 -0.07488,0.257009 -0.09925,0.380374 -0.02438,0.123365 -0.03657,0.245015 -0.03657,0.364953 0,0.113085 0.01132,0.221028 0.03396,0.323832 0.02264,0.102804 0.05659,0.206464 0.101866,0.310981 0.04527,0.104518 0.101866,0.213317 0.169778,0.326402 0.06791,0.113085 0.14714,0.236448 0.237688,0.370094 0.163684,0.243303 0.29341,0.437772 0.389182,0.583411 0.09577,0.145639 0.143658,0.266432 0.143658,0.362383 0,0.09938 -0.01915,0.17905 -0.05746,0.239019 -0.03831,0.05997 -0.09055,0.11394 -0.156718,0.161916 -0.07662,0.05825 -0.181095,0.107943 -0.313435,0.149065 -0.13234,0.04112 -0.276867,0.07882 -0.433585,0.113084 -0.201993,0.04112 -0.372639,0.09509 -0.511945,0.161916 -0.139305,0.06682 -0.250747,0.141355 -0.334331,0.223598 -0.08358,0.08224 -0.143657,0.170482 -0.180225,0.26472 -0.03657,0.09424 -0.05485,0.189329 -0.05485,0.28528 0,0.06168 0.02002,0.120794 0.06007,0.177337 0.04005,0.05654 0.08968,0.107087 0.148882,0.151635 0.0592,0.04455 0.12102,0.08053 0.185449,0.107944 0.06443,0.02741 0.121021,0.04112 0.169777,0.04112 0.07662,0 0.150623,-0.0069 0.222017,-0.02056 0.07139,-0.01371 0.14714,-0.03512 0.227241,-0.06425 0.0801,-0.02913 0.166294,-0.06597 0.258584,-0.110514 0.09229,-0.04455 0.197638,-0.09595 0.316047,-0.154205 0.191545,-0.09595 0.408335,-0.209034 0.650378,-0.339252 0.242043,-0.130219 0.490177,-0.27243 0.744409,-0.426636 0.208958,-0.123365 0.418783,-0.251012 0.629482,-0.382944 0.2107,-0.131932 0.414431,-0.262149 0.611199,-0.390654 0.196769,-0.128506 0.381346,-0.254439 0.553736,-0.377804 0.17239,-0.123365 0.322141,-0.240731 0.449257,-0.352103 0.01625,-0.01423 0.03205,-0.02835 0.04742,-0.04233 l 0,0 c 0.07142,0.239325 0.186213,0.453044 0.344372,0.641161 0.15846,0.188475 0.363062,0.340108 0.613811,0.454907 0.250749,0.114798 0.555475,0.172196 0.914186,0.172196 0.334333,0 0.657342,-0.0514 0.969038,-0.154206 0.311695,-0.102804 0.607714,-0.239018 0.888066,-0.408645 0.280352,-0.169627 0.542416,-0.362382 0.7862,-0.578271 0.243784,-0.215889 0.463187,-0.436914 0.658214,-0.663084 0.132488,-0.152092 0.258926,-0.31141 0.379314,-0.477957 l 0,0 c -0.02553,0.206299 -0.04575,0.395602 -0.06065,0.567911 -0.0209,0.241589 -0.03134,0.424064 -0.03134,0.547429 0,0.219316 0.01828,0.432632 0.05485,0.639954 0.03657,0.207322 0.106219,0.39151 0.208957,0.55257 0.102738,0.16106 0.244653,0.29042 0.42575,0.388084 0.181096,0.09766 0.414429,0.146495 0.700005,0.146495 0.195027,0 0.397888,-0.04455 0.608587,-0.133645 0.210699,-0.0891 0.424007,-0.206463 0.63993,-0.352102 0.215923,-0.14564 0.430102,-0.313551 0.642543,-0.503739 0.21244,-0.190188 0.413559,-0.387226 0.603363,-0.591121 0.144148,-0.154851 0.280762,-0.309699 0.409844,-0.464548 0.0147,0.257037 0.04525,0.493272 0.09165,0.708707 0.06791,0.315266 0.173259,0.58084 0.316047,0.796729 0.142788,0.215889 0.323882,0.379516 0.543288,0.490888 0.219406,0.111371 0.48234,0.167055 0.788812,0.167055 0.195027,0 0.392664,-0.03512 0.592915,-0.105373 0.200251,-0.07025 0.395276,-0.164486 0.585079,-0.282711 0.189804,-0.118224 0.370898,-0.255295 0.543288,-0.411215 0.17239,-0.155919 0.328236,-0.317834 0.467541,-0.485747 0.04527,-0.05483 0.09664,-0.124221 0.154106,-0.208178 0.05746,-0.08396 0.111443,-0.169626 0.161941,-0.257009 0.0505,-0.08738 0.09316,-0.170483 0.127986,-0.249299 0.03483,-0.07882 0.05224,-0.142212 0.05224,-0.190187 0,-0.09595 -0.01045,-0.162773 -0.03134,-0.200467 -0.0209,-0.03769 -0.0801,-0.05654 -0.177613,-0.05654 -0.0592,0 -0.131469,0.03684 -0.216793,0.110514 -0.08532,0.07368 -0.168036,0.153348 -0.248136,0.239018 -0.107962,0.116512 -0.228982,0.234735 -0.363063,0.354673 -0.134081,0.119938 -0.276867,0.227025 -0.428361,0.321262 -0.151495,0.09424 -0.309952,0.171339 -0.475377,0.231308 -0.165425,0.05997 -0.336942,0.08995 -0.514556,0.08995 -0.285576,0 -0.489307,-0.140497 -0.611199,-0.421495 -0.121892,-0.280998 -0.182837,-0.685355 -0.182837,-1.213084 0,-0.16106 0.0044,-0.331541 0.01306,-0.511448 0.0087,-0.179908 0.02264,-0.362383 0.04179,-0.54743 0.01915,-0.185048 0.04266,-0.370093 0.07052,-0.555141 0.02786,-0.185047 0.06095,-0.361525 0.09925,-0.529439 0.05224,-0.226169 0.108832,-0.472039 0.169778,-0.737617 0.06095,-0.265577 0.120149,-0.527724 0.177613,-0.786448 0.05746,-0.258724 0.10709,-0.502881 0.148882,-0.732477 0.04179,-0.229596 0.06965,-0.419781 0.08358,-0.570561 -0.02438,-0.0514 -0.05398,-0.10366 -0.08881,-0.156775 -0.03483,-0.05312 -0.07488,-0.100234 -0.12015,-0.141356 -0.04528,-0.04112 -0.09664,-0.07539 -0.154106,-0.102803 -0.05746,-0.02742 -0.121021,-0.04112 -0.190673,-0.04112 -0.0801,0 -0.161941,0.05397 -0.245525,0.161916 -0.08358,0.107945 -0.166294,0.255295 -0.248136,0.442056 -0.08184,0.186761 -0.161941,0.40693 -0.2403,0.660514 -0.07836,0.253584 -0.152364,0.525155 -0.222017,0.81472 -0.06965,0.289565 -0.13408,0.59112 -0.193285,0.904673 -0.0592,0.313553 -0.109702,0.624531 -0.151494,0.932944 -0.04179,0.308413 -0.07488,0.607397 -0.09925,0.896962 -0.0018,0.02186 -0.0036,0.04358 -0.0053,0.06518 l 0,0 z m 7.6897,1.895803 c 0,0.07539 -0.01741,0.193613 -0.05224,0.354673 -0.01045,0.04798 -0.04702,0.107943 -0.109703,0.179906 -0.06269,0.07196 -0.154975,0.155919 -0.276867,0.251869 -0.111445,0.0891 -0.21331,0.155919 -0.3056,0.200467 -0.09229,0.04455 -0.169777,0.06682 -0.232464,0.06682 -0.13234,0 -0.238559,-0.01456 -0.31866,-0.04369 -0.0801,-0.02913 -0.141916,-0.07368 -0.185449,-0.133644 -0.04353,-0.05997 -0.07226,-0.137928 -0.08619,-0.233879 -0.01393,-0.09595 -0.0209,-0.210747 -0.0209,-0.344392 0,-0.09595 8.71e-4,-0.17648 0.0026,-0.241589 0.0017,-0.06511 0.0078,-0.121651 0.01828,-0.169626 0.03134,-0.23645 0.336069,-0.354673 0.914186,-0.354673 0.139305,0 0.249877,0.01713 0.331719,0.0514 0.08184,0.03427 0.155846,0.0891 0.222016,0.164486 0.06617,0.06511 0.09925,0.149065 0.09925,0.25187 z m 12.991892,-6.358412 c 0,0.113085 -0.01741,0.220171 -0.05224,0.321262 -0.03483,0.101091 -0.08532,0.196183 -0.151494,0.28528 -0.13234,0.181621 -0.336071,0.27243 -0.611199,0.27243 -0.09403,0 -0.191543,-0.0077 -0.292539,-0.02313 -0.100997,-0.01542 -0.192414,-0.03941 -0.274256,-0.07196 -0.08184,-0.03255 -0.148882,-0.07282 -0.201121,-0.120794 -0.05224,-0.04798 -0.07836,-0.102804 -0.07836,-0.164487 0,-0.106231 0.02873,-0.218457 0.0862,-0.336682 0.05746,-0.118225 0.129727,-0.227881 0.216793,-0.328972 0.08706,-0.101091 0.183707,-0.185046 0.289927,-0.251869 0.10622,-0.06682 0.208086,-0.100233 0.3056,-0.100233 0.121892,0 0.229852,0.0077 0.323883,0.02313 0.09403,0.01542 0.17413,0.04198 0.2403,0.07967 0.06617,0.0377 0.115797,0.09081 0.148882,0.159346 0.03308,0.06854 0.04963,0.154205 0.04963,0.257009 z m 32.639056,6.358412 c 0,0.07539 -0.0174,0.193613 -0.0522,0.354673 -0.0104,0.04798 -0.047,0.107943 -0.10971,0.179906 -0.0627,0.07196 -0.15497,0.155919 -0.27687,0.251869 -0.11144,0.0891 -0.21331,0.155919 -0.30559,0.200467 -0.0923,0.04455 -0.16978,0.06682 -0.23247,0.06682 -0.13234,0 -0.23856,-0.01456 -0.318659,-0.04369 -0.0801,-0.02913 -0.141916,-0.07368 -0.185449,-0.133644 -0.04353,-0.05997 -0.07226,-0.137928 -0.08619,-0.233879 -0.01393,-0.09595 -0.0209,-0.210747 -0.0209,-0.344392 0,-0.09595 8.7e-4,-0.17648 0.0026,-0.241589 0.0017,-0.06511 0.0078,-0.121651 0.01828,-0.169626 0.03134,-0.23645 0.336068,-0.354673 0.914178,-0.354673 0.13931,0 0.24988,0.01713 0.33172,0.0514 0.0818,0.03427 0.15585,0.0891 0.22202,0.164486 0.0662,0.06511 0.0992,0.149065 0.0992,0.25187 l 0,0 z m -5.448546,-3.325701 c 0,-0.05483 -0.01045,-0.100234 -0.03134,-0.136215 -0.0209,-0.03598 -0.0444,-0.06425 -0.07052,-0.08481 -0.02612,-0.02056 -0.05224,-0.03513 -0.07836,-0.04369 -0.02612,-0.0086 -0.0444,-0.01285 -0.05485,-0.01285 -0.156719,0 -0.301246,0.05911 -0.433586,0.177336 -0.13234,0.118225 -0.250748,0.269859 -0.355227,0.454907 -0.104479,0.185047 -0.195896,0.388939 -0.274255,0.611682 -0.07836,0.222742 -0.143658,0.438628 -0.195898,0.647663 0.208958,-0.157633 0.403983,-0.30327 0.58508,-0.436916 0.181097,-0.133645 0.338683,-0.263862 0.472765,-0.390654 0.134081,-0.126792 0.240299,-0.253582 0.318659,-0.380373 0.07836,-0.126792 0.117538,-0.262149 0.117538,-0.406075 l 0,0 z"
             id="buy.-sell.-simple."
             sketch:type="MSShapeGroup"
             inkscape:connector-curvature="0" />
        </g>
      </g>
    </g>
  </g>
</svg>
