<?xml version="1.0" encoding="utf-8"?>
<!-- Generator: Adobe Illustrator 18.1.1, SVG Export Plug-In . SVG Version: 6.00 Build 0)  -->
<!DOCTYPE svg PUBLIC "-//W3C//DTD SVG 1.1//EN" "http://www.w3.org/Graphics/SVG/1.1/DTD/svg11.dtd">
<svg version="1.1" id="Layer_1" xmlns="http://www.w3.org/2000/svg" xmlns:xlink="http://www.w3.org/1999/xlink" x="0px" y="0px"
	 viewBox="0 0 40 40" enable-background="new 0 0 40 40" xml:space="preserve">
<g>
	<circle fill="#CD201F" cx="20" cy="20" r="20"/>
	<path fill-rule="evenodd" clip-rule="evenodd" fill="#FFFFFF" d="M29.2,14.4c-0.6-1-1.1-1.2-2.3-1.2C25.6,13.1,22.6,13,20,13l0,0
		c-2.6,0-5.6,0-6.8,0.1c-1.2,0.1-1.8,0.3-2.3,1.2C10.3,15.3,10,17,10,20l0,0c0,0,0,0,0,0c0,0,0,0,0,0l0,0c0,3,0.3,4.7,0.8,5.6
		c0.6,1,1.1,1.2,2.3,1.2c1.2,0.1,4.2,0.1,6.8,0.1l0,0c2.6,0,5.6,0,6.8-0.1c1.2-0.1,1.8-0.3,2.3-1.2c0.6-1,0.8-2.7,0.8-5.6
		c0,0,0,0,0,0c0,0,0,0,0,0C30,17,29.7,15.3,29.2,14.4z M18,23.7v-7.3l5.7,3.7L18,23.7z"/>
</g>
</svg>
